<?xml version="1.0" encoding="UTF-8" standalone="no"?>
<!DOCTYPE svg PUBLIC "-//W3C//DTD SVG 1.1//EN" "http://www.w3.org/Graphics/SVG/1.1/DTD/svg11.dtd">
<svg version="1.1"
  xmlns="http://www.w3.org/2000/svg"
  xmlns:xlink="http://www.w3.org/1999/xlink" preserveAspectRatio="xMidYMid meet" viewBox="0 0 512 512" width="512" height="512">
  <defs>
    <path d="M103.18 131.9C103.19 132.07 102.59 132.51 101.9 132.88C99.35 134.13 94.06 137.18 90.39 139.51C73.35 150.27 58.67 163.8 46.61 179.85C29.41 202.7 18.81 229.42 15.77 257.47C14.88 265.53 14.83 268.62 15.27 279.84C15.74 291.33 16.03 293.86 17.77 302.72C24.79 338.35 44.75 370 74.09 391.94C94.86 407.49 119.66 417.52 146.07 421.09C148.88 421.46 152.49 421.88 154.04 422C154.24 422.01 155.2 422.08 156.93 422.22C156.99 421.77 157.02 421.52 157.03 421.47C157.25 420.08 160.45 391.7 160.42 391.67C160.4 391.65 158.25 391.4 155.64 391.15C132.41 388.75 110.63 380.15 92.39 366.19C89 363.57 82.34 357.6 79.3 354.4C68.47 343.02 60.23 330.15 54.68 315.87C50.15 304.3 47.65 292.98 46.79 280.34C44.72 249.3 54.98 217.93 75.45 192.92C78.81 188.8 85.81 181.49 89.57 178.25C95.86 172.75 103.4 167.33 110.63 163.07C110.74 163.01 111.29 162.68 112.29 162.1C112.47 162.66 112.57 162.97 112.59 163.03C112.76 163.54 113.97 167.55 115.3 171.95C116.62 176.37 117.77 179.96 117.87 179.96C118.15 179.95 166.54 129.14 166.4 129.03C166.32 128.95 151.15 125.8 132.65 122.03C114.17 118.25 98.85 115.11 98.59 115.04C98.2 114.93 98.13 115.01 98.27 115.38C98.7 116.62 103.17 131.6 103.18 131.9Z" id="bwskBM40"></path>
    <path d="M193.93 178.01C184.58 178.01 177 170.42 177 161.08C177 148.66 177 49.35 177 36.93C177 27.59 184.58 20 193.93 20C197.31 20 224.4 20 227.78 20C237.13 20 244.71 27.59 244.71 36.93C244.71 49.35 244.71 148.66 244.71 161.08C244.71 170.42 237.13 178.01 227.78 178.01C221.01 178.01 197.31 178.01 193.93 178.01ZM335 36.93C335 27.59 327.41 20 318.07 20C314.68 20 287.6 20 284.21 20C274.87 20 267.28 27.59 267.28 36.93C267.28 49.35 267.28 148.66 267.28 161.08C267.28 170.42 274.87 178.01 284.21 178.01C287.6 178.01 314.68 178.01 318.07 178.01C327.41 178.01 335 170.42 335 161.08C335 136.25 335 49.35 335 36.93Z" id="g3zxDGzQH"></path>
    <path d="M202.53 336.03C192.45 330.81 177 335.87 177 348.77C177 361.61 177 464.34 177 477.18C177 488.75 191.35 495.72 202.53 489.92C214.95 483.5 314.26 432.15 326.68 425.73C337.75 420.03 337.79 405.95 326.68 400.25C301.85 387.4 214.95 342.45 202.53 336.03Z" id="ekshc0EJt"></path>
    <path d="M409.22 405.32C409.21 405.14 409.81 404.7 410.5 404.33C413.05 403.08 418.34 400.04 422.01 397.71C439.05 386.94 453.73 373.42 465.79 357.37C482.99 334.52 493.6 307.8 496.63 279.74C497.52 271.68 497.57 268.6 497.13 257.38C496.66 245.89 496.37 243.35 494.63 234.5C487.61 198.86 467.65 167.21 438.31 145.27C417.54 129.72 392.75 119.7 366.33 116.13C363.52 115.75 359.91 115.34 358.36 115.22C358.16 115.2 357.2 115.13 355.47 115C355.41 115.44 355.38 115.69 355.38 115.74C355.15 117.13 351.95 145.52 351.98 145.54C352 145.57 354.15 145.81 356.76 146.07C379.99 148.47 401.77 157.07 420.01 171.02C423.4 173.65 430.06 179.61 433.1 182.81C443.93 194.19 452.17 207.06 457.72 221.34C462.25 232.91 464.75 244.23 465.61 256.87C467.68 287.91 457.42 319.28 436.95 344.3C433.59 348.41 426.59 355.72 422.83 358.96C416.54 364.47 409 369.89 401.77 374.14C401.66 374.21 401.11 374.53 400.11 375.11C399.93 374.56 399.83 374.25 399.81 374.19C399.64 373.67 398.43 369.67 397.1 365.27C395.78 360.84 394.64 357.25 394.53 357.26C394.25 357.27 345.87 408.07 346 408.19C346.08 408.26 361.25 411.41 379.75 415.19C398.23 418.96 413.55 422.11 413.81 422.17C414.2 422.28 414.27 422.2 414.13 421.84C413.7 420.59 409.23 405.61 409.22 405.32Z" id="jdozvXOOC"></path>
  </defs>
  <g>
    <g>
      <g>
        <use xlink:href="#bwskBM40" opacity="1" fill="#000000" fill-opacity="1"></use>
        <g>
          <use xlink:href="#bwskBM40" opacity="1" fill-opacity="0" stroke="#000000" stroke-width="1" stroke-opacity="0"></use>
        </g>
      </g>
      <g>
        <use xlink:href="#g3zxDGzQH" opacity="1" fill="#000000" fill-opacity="1"></use>
        <g>
          <use xlink:href="#g3zxDGzQH" opacity="1" fill-opacity="0" stroke="#000000" stroke-width="1" stroke-opacity="0"></use>
        </g>
      </g>
      <g>
        <use xlink:href="#ekshc0EJt" opacity="1" fill="#000000" fill-opacity="1"></use>
        <g>
          <use xlink:href="#ekshc0EJt" opacity="1" fill-opacity="0" stroke="#000000" stroke-width="1" stroke-opacity="0"></use>
        </g>
      </g>
      <g>
        <use xlink:href="#jdozvXOOC" opacity="1" fill="#000000" fill-opacity="1"></use>
        <g>
          <use xlink:href="#jdozvXOOC" opacity="1" fill-opacity="0" stroke="#000000" stroke-width="1" stroke-opacity="0"></use>
        </g>
      </g>
    </g>
  </g>
</svg>