<svg xmlns="http://www.w3.org/2000/svg" height="64" width="64" xmlns:v="https://vecta.io/nano"><linearGradient id="A" gradientUnits="userSpaceOnUse" x1="33.1" x2="32.2" y1="4.9" y2="64"><stop offset="0" stop-color="#d9d8dc"/><stop offset="1" stop-color="#fff" stop-opacity=".4"/></linearGradient><linearGradient id="B" gradientTransform="matrix(.11420937 0 0 .22711641 11.409779 -.000001)" gradientUnits="userSpaceOnUse" x1="199" x2="140.1" y1="21.4" y2="278.4"><stop offset="0" stop-color="#8d67af" stop-opacity=".7"/><stop offset="1" stop-color="#9f8daf"/></linearGradient><linearGradient id="C" gradientUnits="userSpaceOnUse" x1="36.7" x2="36.7" y1="21.3" y2="62.2"><stop offset="0" stop-color="#26053d" stop-opacity=".8"/><stop offset="1" stop-color="#b7b4b4" stop-opacity=".3"/></linearGradient><linearGradient id="D" gradientTransform="matrix(.18477958 0 0 .14037711 11.409779 -.000001)" gradientUnits="userSpaceOnUse" x1="23.5" x2="112.9" y1="171.7" y2="351.7"><stop offset="0" stop-color="#91739f" stop-opacity=".5"/><stop offset="1" stop-color="#32054f" stop-opacity=".5"/></linearGradient><linearGradient id="E" gradientTransform="matrix(.14183937 0 0 .18287462 11.409779 -.000001)" gradientUnits="userSpaceOnUse" x1="226.8" x2="67.8" y1="317.3" y2="147.4"><stop offset="0" stop-color="#463d49" stop-opacity=".3"/><stop offset="1" stop-color="#340a50" stop-opacity=".8"/></linearGradient><linearGradient id="F" gradientTransform="matrix(.10596912 0 0 .24477717 11.409779 -.000001)" gradientUnits="userSpaceOnUse" x1="248" x2="200.7" y1="88.8" y2="255"><stop offset="0" stop-color="#715383" stop-opacity=".1"/><stop offset="1" stop-color="#f4f4f4" stop-opacity=".2"/></linearGradient><linearGradient id="G" gradientTransform="matrix(.09173097 0 0 .28277061 11.409779 -.000001)" gradientUnits="userSpaceOnUse" x1="307.6" x2="156.5" y1="110" y2="81.5"><stop offset="0" stop-color="#a5a1a8" stop-opacity=".4"/><stop offset="1" stop-color="#370c50" stop-opacity=".6"/></linearGradient><g fill-rule="evenodd"><path d="M34 .2c-4.6 1.6-9 6.5-13.5 14.4-6.5 12-15 29-3.3 42.4 5.3 6.2 14.2 10 25.7 4 9.3-4.7 12-18 8.5-24.4-7-13-14-16.2-15.7-24.3A52 52 0 0 1 34 .2z" fill="url(#A)"/><path d="M34 0C29.4 1.7 25 6.5 20.6 14.4c-6.5 12-15 29-3.3 42.4 5.3 6.2 14 8.2 19 4.5 3-2.4 5.3-4.7 6.5-9.5 1.4-5.4.3-12.6-.4-16-1-4.2-1.2-8.8-1-14l-.2-.3c-2.5-3-4.5-5.8-5.3-9.5A52 52 0 0 1 34 0z" fill="url(#B)"/><path d="M30.2 2c-4.4 3.4-7.6 9.2-9.7 17.3a77 77 0 0 0-2.4 29.9C20.2 62 31.5 66.7 43 60.8c7-3.6 10-11.4 10-19.8-.2-8.7-17-18.6-20-26a32 32 0 0 1-2.8-13z" fill="url(#C)"/><path d="M41.2 25c5.2 6.7 6.4 11.4 3.4 14-4.4 4-15.2 6.5-22 1.7-4.5-3.2-6.2-10-5-20.4L13 32c-1.3 4-1.7 8-1 12.4 1.6 3.2 5.5 5.4 11.7 6.5a40 40 0 0 0 24-2.1c4-2 5.8-4 5.6-6 .1-3-.8-5.7-2.7-8.3s-5-5.8-9-9.6z" fill="url(#D)"/><path d="M20.8 18.2c0 4.8 1.2 9.4 3.7 13.8 3.8 6.5 8.2 13 15 18.3 4.4 3.6 8 4.7 10.6 3.5-2.2 4-4.5 5.8-7 5.7-3.7-.1-8-1.7-15.3-10.3C23 43.4 19.7 38 18 33l1-6a87 87 0 0 1 2-8.6z" fill="url(#E)"/><path d="M32 24.8c.4 4 2 10.2 0 14.4S21 51 23.6 57.7 32 63 36 59.8a19 19 0 0 0 6.2-11.6c.4-3.5-1-10.3-1.6-16.2a29 29 0 0 1 .7-10.1L40 20.5l-6.8-2c-1 1.6-1.5 3.7-1.2 6.4z" fill="url(#F)"/><path d="M34.4 5.3C32.2 6.2 30 8 28.2 11c-3 4-4.5 6.6-3.4 14.8.7 5.5 1.3 10.5 1.6 15L36 13l-1-3.8c-.2-1-.4-2.4-.6-4z" fill="url(#G)"/><path d="M36 13c-2.4 1.4-4.3 4.3-5.6 8.7S27.8 32.2 26.7 40l3-11c.7-3.4 1-8 3-11.4C33.8 15.7 35 14 36 13z" fill="#330a4c" fill-opacity=".3"/><path d="M24.7 60c4 .6 6 1 6.3 1.5.3.7-.5 1.3-2.7 1-1.5-.3-2.7-1-3.5-2.4z" fill="#fff"/><path d="M26.7 5.3c-2.2 2.6-4 5.4-5.7 8.3l-3.4 6.6a26 26 0 0 0-.3 4.8 52 52 0 0 0 .5 7c.3-5 1.3-10 3-14.7s3.6-8.7 6-12z" fill="#ededed" fill-opacity=".6"/></g></svg>