<svg xmlns="http://www.w3.org/2000/svg" xmlns:xlink="http://www.w3.org/1999/xlink" width="1137" height="504.768" xmlns:v="https://vecta.io/nano"><style><![CDATA[.B{opacity:.1}.C{fill:#6c63ff}.D{fill:#2f2e41}.E{fill:#3f3d56}.F{fill:#9f616a}]]></style><path d="M0 502.768h1137v2H0z" class="E"/><circle cx="176.058" cy="35.615" r="34.28" fill="#ff6584"/><g class="E"><path d="M167.665 360.324l-1.95-.44c21.756-96.75 76.43-184.61 153.95-247.392C438.812 16.15 599.208-11.972 744.024 38.095S997.62 209.343 1031.82 358.703l-1.95.443C983.817 156.938 806.596 15.712 598.9 15.712c-204.974 0-386.334 144.93-431.236 344.61z"/><path d="M239.544 69.768h723.834v434H239.544z"/></g><path d="M369.882 377.337h-12.505v-12.505h12.505zm-11.543-.962h10.58v-10.58h-10.58zm336.186 51.462H682.02v-12.505h12.505zm-11.543-.962h10.58v-10.58h-10.58zm48.095-206.328h-12.505v-12.505h12.505zm-11.543-.962h10.58v-10.58h-10.58zM240.156 102.713H964v.962H240.156z" class="D"/><ellipse cx="601.461" cy="478.337" rx="127.933" ry="12.505" class="B"/><use xlink:href="#B" class="F"/><use xlink:href="#B" class="B"/><circle cx="607.092" cy="183.561" r="23.706" class="D"/><g class="F"><path d="M625.9 268.748l18.746-13.985s20.03-17.596 11.957-19.53-16.298 12.822-16.298 12.822l-18.313 11 2.42 9.468zm-88.845-48.765l7.85-22.03s10.924-24.322 15.148-17.173-7.46 19.35-7.46 19.35l-5.134 20.742-9.76.472zm57.453 48.224l4.262 17.9 14.5 3.4 2.557-23.867-21.3 2.557z"/><use xlink:href="#C"/></g><use xlink:href="#C" class="B"/><path d="M584.28 459.147s-3.4-8.524-7.672-3.4-6.82 13.64 2.557 19.605 31.54 15.343 32.392 9.377-8.524-9.377-8.524-9.377l-2.557-11.08s1.705-10.23 0-10.23-4.262 5.967-4.262 5.967z" class="D"/><path d="M576.608 323.613s8.524 9.377 16.196 11.934 43.473 24.72 42.62 26.425-11.934 21.3-13.64 40.063-8.524 24.72-8.524 24.72l9.377 11.934 10.23-8.524s14.49-54.554 22.163-63.93 0-16.196 0-16.196l-46.883-44.325h-15.343z" class="F"/><path d="M583.427 279.288l-6.82 17.9s-14.104 18.587 4.653 31.1c0 0 21.075-23.142 26.034-20.862 6.67 3.067 6.67 4.03 6.67 4.03l-.34-25.34s-15.7-16.196-20.823-15.343-9.376 8.524-9.376 8.524zm34.096 148.32s-2.557-6.82-5.114-4.262-11.08 9.377-4.262 16.196 26.425 23.015 32.392 22.163 4.262-7.672 4.262-7.672-5.967-3.4-5.967-7.672-5.004-19.487-5.06-19.546-11.136 3.35-11.136 4.203-5.114-3.4-5.114-3.4z" class="D"/><circle cx="604.737" cy="194.9" r="16.196" class="F"/><g class="C"><path d="M614.114 234.1l-11.08-14.49s-9.376-9.377-11.08-8.524-1.705 4.262-1.705 4.262-18.753-8.524-20.458-6.82 0 34.95 1.705 36.654 2.557 26.425 5.967 29.834 3.4 11.08 3.4 11.08l19.605-13.64c2.557-1.705 10.23-2.557 11.08-.852s9.377-2.557 11.08-3.4-8.524-34.096-8.524-34.096z"/><path d="M611.7 266.283s-2.557 15.343 1.705 17.9 9.376 5.114 9.376 5.114 2.557-13.64 0-16.196-11.08-6.82-11.08-6.82zm-.154-44.96l1.705 12.786 7.672 32.392 4.262 4.262s5.114-16.196 5.114-19.605-7.672-24.72-7.672-24.72zm-39.2-10.23s-9.377.852-9.377 2.557v4.262l-14.5 3.4 1.705-5.114-13.64-.852s-14.5 21.3-5.114 22.163 32.392 0 35.8 1.705 10.23.852 10.23.852z"/></g><g class="D"><use xlink:href="#D"/><use xlink:href="#E"/><use xlink:href="#D"/><use xlink:href="#E"/><use xlink:href="#E" x="-5.29" y="-1.443"/></g><path d="M627.196 206.085a4.81 4.81 0 0 0-2.493-9.259 4.81 4.81 0 0 0-3.903 5.232l-19.012-1.346-.17 2.4 20.193 1.43a4.81 4.81 0 0 0 5.385 1.545z" class="C"/><path fill="#ff6584" d="M626.177 167.79l-33.412-4.006 20.08-28.247 13.332 32.253z"/><path d="M606.092 145.037h10.677l-1.192-2.886h-7.43l-2.054 2.886zm-1.707 2.405h13.38l1.193 2.886H602.33l2.054-2.886z" class="B"/><path d="M598.45 126.9l1.123-.906 6.34 7.862-1.123.906zm19.88 7.852l-1.123-.906 6.34-7.862 1.123.906zm-9.084-11.154l1.42-.252 1.766 9.944-1.42.252z" fill="#f2f2f2"/><g class="C"><circle cx="271.443" cy="85.695" r="7.509"/><circle cx="298.474" cy="85.695" r="7.509"/><circle cx="325.505" cy="85.695" r="7.509"/></g><use xlink:href="#F" class="B"/><path d="M511.895 421.594c.956 2.9-.434 4.48-2.56 5.18s-4.184.257-5.14-2.643 1.678-7.857 1.678-7.857 5.066 2.42 6.022 5.32z" class="B"/><use xlink:href="#F" x="8.688" y="-80.582" class="B"/><use xlink:href="#G" class="B"/><use xlink:href="#G" x="-75.508" y="-55.79" class="B"/><path d="M702.02 478.347l-.962-.02a222.96 222.96 0 0 1 3.415-31.88c4.16-22.547 11.076-37.356 20.557-44.013l.552.787c-22.15 15.55-23.55 74.53-23.562 75.125zm12.023-.23l-.962-.02c.02-1.065.622-26.17 10.505-33.1l.552.787c-9.485 6.66-10.1 32.085-10.096 32.34z" class="D"/><g class="C"><circle cx="731.077" cy="398.018" r="4.81"/><circle cx="728.673" cy="439.861" r="4.81"/></g><path d="M711.802 406.192c.482 3.7-.02 7.48-1.452 10.937a19.47 19.47 0 0 1-3.273-20.907c2.42 2.852 4.05 6.3 4.725 9.97zm15.72 14.02a21.38 21.38 0 0 1-11.023.476 19.47 19.47 0 0 1 20.017-6.866 21.48 21.48 0 0 1-8.994 6.4z" class="D"/><use xlink:href="#H" class="B"/><use xlink:href="#H" x="-243.601" y="103.078" class="B"/><use xlink:href="#H" x="100.97" y="201.225" class="B"/><path d="M74.397 493.985c1.694 6.262 7.496 10.14 7.496 10.14s3.056-6.274 1.362-12.536-7.496-10.14-7.496-10.14-3.056 6.274-1.362 12.536z" class="E"/><path d="M76.886 492.64c4.648 4.525 5.216 11.48 5.216 11.48s-6.968-.38-11.617-4.905-5.216-11.48-5.216-11.48 6.968.38 11.617 4.905z" class="C"/><path d="M157.672 271.826h5.875V503.88h-5.875z" class="E"/><use xlink:href="#I" class="C"/><use xlink:href="#I" class="B"/><path d="M81.3 271.826h5.875V503.88H81.3z" class="E"/><path d="M141.392 301.4c.374 81.143-56.715 147.188-56.715 147.188s-57.695-65.515-58.07-146.658S83.323 154.74 83.323 154.74s57.695 65.515 58.07 146.658z" class="C"/><g fill="#f2f2f2"><use xlink:href="#J"/><use xlink:href="#J" x="362" y="5"/><use xlink:href="#J" x="650" y="-24"/></g><path d="M1050.3 270.826h5.875V502.88h-5.875z" class="E"/><use xlink:href="#I" x="892.628" y="-1" class="C"/><defs ><path id="B" d="M595.36 204.276v17.048l22.163 42.62 6.82-2.557 3.4-11.08-1.705-10.23-5.114-11.934-9.377-6.82s-3.4-5.967 0-15.343-16.196-1.705-16.196-1.705z"/><path id="C" d="M585.984 328.728s4.262 17.9 6.82 25.572 1.705 35.8 1.705 35.8-7.672 14.49-8.524 30.687-6.82 38.358-6.82 38.358l8.524 9.377h6.82l2.557-4.262s7.672-58.816 15.343-68.193 5.114-18.753 5.114-18.753v-46.03L602.18 298.04l-20.518 19.986z"/><path id="D" d="M611.87 167.043s-8.043 10.34-24.128 12.64-3.447 27.575-3.447 27.575-4.596-9.192 4.596-17.235 22.98-12.64 22.98-22.98z"/><path id="E" d="M611.87 167.043s4.596 16.086 11.5 18.384 3.447 26.426-8.043 28.724c0 0 9.766-13.213 4.02-23.554s-9.192-18.384-7.468-23.554z"/><path id="F" d="M487.686 326.277c-1.622 2.587-3.726 2.526-5.623 1.337s-2.87-3.056-1.247-5.643 7.12-3.724 7.12-3.724 1.372 5.444-.25 8.03z"/><path id="G" d="M752.74 352.35c1.707 2.53.798 4.43-1.06 5.68s-3.957 1.382-5.664-1.15-.516-8.018-.516-8.018 5.532.954 7.24 3.486z"/><path id="H" d="M705.678 179.1l-39.676.292s21.232-12.7 39.64-8.067 39.566 7.702 39.566 7.702-17.658-.027-39.53.073z"/><path id="I" d="M217.764 301.4c.374 81.143-56.715 147.188-56.715 147.188s-57.695-65.515-58.07-146.658 56.715-147.188 56.715-147.188 57.695 65.515 58.07 146.658z"/><path id="J" d="M217.98 50.08l-52.98.566s28.258-37.43 52.874-23.563 52.893 23.076 52.893 23.076l-52.787-.08z"/></defs></svg>