<svg xmlns="http://www.w3.org/2000/svg" xmlns:xlink="http://www.w3.org/1999/xlink" width="1099.2" height="725.77" xmlns:v="https://vecta.io/nano"><style><![CDATA[.B{opacity:.1}.C{fill:#6c63ff}.D{fill:#444053}.E{fill:#3f3d56}.F{opacity:.05}.G{fill:#efb7b9}.H{fill:#a1616a}.I{fill:#ffcdd3}.J{fill:#f86d70}]]></style><defs><linearGradient id="A" x1="1025" y1="580.8" x2="872.34" y2="580.8" gradientUnits="userSpaceOnUse"><stop offset="0" stop-color="gray" stop-opacity=".25"/><stop offset=".54" stop-color="gray" stop-opacity=".12"/><stop offset="1" stop-color="gray" stop-opacity=".1"/></linearGradient><linearGradient id="B" x1="-106.89" y1="588.73" x2="-106.89" y2="244.28" gradientTransform="matrix(-1, -0.04, -0.04, 1, 494.48, 21.29)" xlink:href="#A"/><path id="C" d="M921.92 339.1c5.5.88 11.6 3 13.7 8.14 1.58 3.9.36 8.26 0 12.44a9.44 9.44 0 0 0 .12 3.31 11.61 11.61 0 0 0 2.9 4.55 24.24 24.24 0 0 1 4.18 5.85 8.52 8.52 0 0 1 .28 7 5.09 5.09 0 0 0-.69 1.84c-.07 1.43 1.42 2.33 2.52 3.24 4.12 3.4 3.94 9.62 4 15a75.72 75.72 0 0 0 7.16 31.64 9.67 9.67 0 0 1-10.82-1.41 36.43 36.43 0 0 0 2.46 7.08c-3.5 1.7-7.7-1.1-9.43-4.54s-2-7.48-3.2-11.14-3.5-6.9-4.5-10.58a10.17 10.17 0 0 0-1.25-3.54 9 9 0 0 0-2.2-1.87 21.4 21.4 0 0 1-7.75-10.52c-4.27 1-8.62 1.9-13 1.5s-8.8-2.37-11.08-6.1c-1-1.64-1.57-3.53-2.5-5.2-1.15-2.06-2.85-3.75-4.14-5.73-3.06-4.68-3.62-10.7-2.38-16.15s4.14-10.4 7.57-14.8c6.63-8.5 17.67-11.67 28.06-10z"/><path id="D" d="M910.1 623.9c.27 4.2.45 8.7-1.84 12.22-.82 1.27-1.93 2.33-2.87 3.52a4.13 4.13 0 0 0-1 2.12c-.14 1.53 1.3 2.85 2.82 3.13a9.33 9.33 0 0 0 4.53-.65 10.91 10.91 0 0 0 3.85-1.81c2-1.7 2.52-4.5 2.92-7.08l.93-6a18.91 18.91 0 0 0 .34-4.37 19.46 19.46 0 0 0-1.17-4.71l-1.54-4.5a2.12 2.12 0 0 0-.68-1.12 2 2 0 0 0-1.17-.21c-1.47.07-5.18.6-5.9 2.16-.65 1.4.67 5.72.77 7.3z"/><path id="E" d="M923.35 376.5a9 9 0 0 0 .8 5.26 8.22 8.22 0 0 0 2.09 2.31 15.49 15.49 0 0 0 6.06 3c1.3.33 2.76.55 3.62 1.6 1.3 1.56.43 3.9-.67 5.6-1.9 3-4.55 5.65-7.94 6.57-2.7.74-5.6.3-8.38.77-2 .35-3.9 1.18-5.88 1.65a17.35 17.35 0 0 1-16-4.45c2.94-2.26 6-4.67 7.53-8.06a11.46 11.46 0 0 0 .57-7.7c-.7-2.5-2.3-5-1.8-7.52s3-4.32 5.5-5.2a35.34 35.34 0 0 1 6.93-1.4c1.3-.18 9.52-2 10-1.1.3.5-1.42 3.5-1.63 4.17a16.05 16.05 0 0 0-.81 4.49z"/><path id="F" d="M896.5 356.3a21.88 21.88 0 0 1 5.87-6.11c3.1-2.33 6.7-4.26 10.6-4.48a11.26 11.26 0 0 1 4.76.78c.08-4.72 1.25-7.85 4.2-7.38 5.5.88 11.6 3 13.7 8.14 1.58 3.9.36 8.26 0 12.44a9.44 9.44 0 0 0 .12 3.31 11.61 11.61 0 0 0 2.9 4.55 24.24 24.24 0 0 1 4.18 5.85 8.52 8.52 0 0 1 .28 7 5.09 5.09 0 0 0-.69 1.84c-.07 1.43 1.42 2.33 2.52 3.24 4.12 3.4 3.94 9.62 4 15a75.72 75.72 0 0 0 7.16 31.64 9.67 9.67 0 0 1-10.82-1.41 36.43 36.43 0 0 0 2.46 7.08c-3.5 1.7-7.7-1.1-9.43-4.54s-2-7.48-3.2-11.14-3.5-6.9-4.5-10.58a10.17 10.17 0 0 0-1.25-3.54 9 9 0 0 0-2.2-1.87c-3.6-2.58 1.7-22.12.3-26.3-2.1.45-5.93-9.63-8.12-19.88a10.35 10.35 0 0 1-4.75.48 5.72 5.72 0 0 0-1.7-.12 4.52 4.52 0 0 0-1.48.6 36.51 36.51 0 0 1-5.05 2.6c-3.62 1.35-7.6 1.17-11.46 1a11.36 11.36 0 0 1 1.62-8.19z"/><path id="G" d="M154.47 199.04l-3.43.73s3.38 5.56 8.6 1.9-5.16-2.64-5.16-2.64z"/><path id="H" d="M605.36 101.03s2.33-.4 1.44-2.3a7.2 7.2 0 0 1-2.75.11 6.09 6.09 0 0 1-3.67-2.69c-1.67.6-1 1.43-1 1.43.22 2.74 5.98 3.46 5.98 3.46z"/><path id="I" d="M609.6 133.04a7.21 7.21 0 0 1-.84-2.62 5.68 5.68 0 0 1 .19-1.66l.15-.47a4.87 4.87 0 0 1 1.26-2.12c-1-1.44-1.63-.54-1.63-.54-1.14.4-1.6 1.77-1.78 3.14 0 .2 0 .4-.06.6a15.71 15.71 0 0 0 .1 2.91c0 0 1.03 2.15 2.6.77z"/><path id="J" d="M566.35 91.9c5.4 3.47 11.63 6.83 17.55 8.6 4.55 1.38 8.9 1.82 12.56.66a11.51 11.51 0 0 0 4.26-2.46 12.15 12.15 0 0 0 2.15-2.56c4.23-6.6 4.15-18.23.8-28.3-2.34-7-6.22-13.2-11.33-16.48-12.46-8-28.38-5.4-35.56 5.8s-2.9 26.73 9.57 34.73z"/><path id="K" d="M597.5 105.3c1.6 2.22 6.86-.16 6.86-.16s1.8-1.54 0-2.7a6.91 6.91 0 0 1-2.29 1.52 6.09 6.09 0 0 1-4.52-.37c-1.1 1.37-.05 1.72-.05 1.72z"/><path id="L" d="M622.6 101.3a7.33 7.33 0 0 1-.84-2.63 6.14 6.14 0 0 1 1.61-4.25c-1-1.44-1.64-.53-1.64-.53-2.57.93-1.74 6.64-1.74 6.64s1 2.14 2.6.77z"/><path id="M" d="M621.78 100.06a7.21 7.21 0 0 1-.84-2.62 6.14 6.14 0 0 1 1.66-4.25c-1-1.44-1.64-.54-1.64-.54-2.57.94-1.74 6.65-1.74 6.65s.95 2.14 2.56.76z"/><path id="N" d="M618.6 90.52s2.33.4 2.1-1.72a7.2 7.2 0 0 1-2.64-.78 6.16 6.16 0 0 1-2.61-3.73c-1.76 0-1.36 1-1.36 1-.7 2.7 4.5 5.23 4.5 5.23z"/><path id="O" d="M618.17 89.9s2.33.4 2.1-1.7a7.44 7.44 0 0 1-2.64-.79 6.14 6.14 0 0 1-2.61-3.72c-1.76 0-1.36 1-1.36 1-.7 2.7 4.5 5.22 4.5 5.22z"/><path id="P" d="M598.6 115.32c1 1.46 1.64.55 1.64.55 2.58-.9 1.8-6.63 1.8-6.63s-1-2.15-2.6-.8a7 7 0 0 1 .8 2.63 6.06 6.06 0 0 1-1.64 4.24z"/><path id="Q" d="M618.38 78.75a3.6 3.6 0 0 0 1.68.23 5.83 5.83 0 0 1 2.46.68c-.38-5.12-7.38-6.6-7.38-6.6a9.5 9.5 0 0 1 3.24 5.69z"/><path id="R" d="M597.6 135.08s2.33.4 2.1-1.72a7.1 7.1 0 0 1-2.64-.78 6.1 6.1 0 0 1-2.61-3.72c-1.77 0-1.37 1-1.37 1-.7 2.7 4.5 5.22 4.5 5.22z"/><path id="S" d="M599.03 135.9s2.33.4 2.1-1.7a7 7 0 0 1-2.64-.79 6.06 6.06 0 0 1-2.6-3.72c-1.77 0-1.37 1-1.37 1-.7 2.7 4.5 5.22 4.5 5.22z"/></defs><g class="C"><circle cx="985.58" cy="371.09" r="21.63" class="B"/><circle cx="1062.95" cy="274.65" r="36.25" class="B"/><circle cx="455.32" cy="27.78" r="21.63" class="B"/><circle cx="703.43" cy="52.64" r="21.63" class="B"/><circle cx="36.25" cy="326.22" r="36.25" class="B"/><path d="M608.1 119.66c-64.72-2.4-126.36-24.85-185.22-49.4S305.72 18.5 242.6 5.5c-40.63-8.37-87.1-9.56-119.83 13.84-31.55 22.56-41.73 61.4-47.17 97.45-4.12 27.14-6.54 55.7 4.74 81.1 7.83 17.64 21.74 32.46 31.36 49.35C145.17 306 121.5 378.5 85.24 435.9c-17 26.92-36.74 52.6-49.87 81.26s-19.23 61.5-7.77 90.74c11.38 29 38.5 50.74 67.9 66 59.7 31.1 130 40 198.6 45 151.82 11.16 304.46 6.33 456.7 1.5 56.33-1.8 112.92-3.6 168.34-13 30.78-5.2 62.55-13.45 84.9-33.36 28.37-25.27 35.4-68.07 16.4-99.76-31.88-53.16-120-66.37-142.3-123.42-12.26-31.4.33-66.38 18.16-95.5 38.23-62.48 102.33-117.3 105.7-188.7 2.32-49-28.5-98.16-76.13-121.37-49.94-24.33-119.18-21.27-156 19-37.92 41.63-104.6 57.54-161.73 55.4z" class="B"/></g><path d="M872.34 482.75a5.91 5.91 0 0 0 1.33 3.46 19.66 19.66 0 0 0 5.32 4.52v5.42s16 13.37 19.3 18.42c3.17 4.82 6.4 9.73 10.92 13.32a9.85 9.85 0 0 0 4.07 2.16h.27a4.23 4.23 0 0 1-1.56 1 3.7 3.7 0 0 0 4.36 3.13 7.29 7.29 0 0 0 2.16-1.08l6.34-4.1a18.16 18.16 0 0 0 2.95-2.21c1.18-1.2 2-2.68 3.16-3.9 2-2.08 4.84-3.32 6.23-5.82.87-1.56 1-3.4 1.56-5.12.35-1.12.86-2.18 1.2-3.3a11.93 11.93 0 0 0 .41-2.06c.22.2.45.38.7.56.5-.32 1.43.52 1.2 1.06s-.75.93-.93 1.5c-.4 1.28 1.18 2.23 1.84 3.4s.32 2.67.4 4 .68 2.93.87 4.42c.46 3.48-1.26 7.15 0 10.44a3.29 3.29 0 0 0-3.25 2.53 9.58 9.58 0 0 0 .13 4.45 6.12 6.12 0 0 0-3 5.59 1.37 1.37 0 0 1-.14 1 1.42 1.42 0 0 1-.57.33 5.64 5.64 0 0 0-3.48 5.24 2.6 2.6 0 0 1-.1 1.11 2.63 2.63 0 0 1-.82.84 6.52 6.52 0 0 0-2.43 5.1 3.7 3.7 0 0 0 1.72 3.34h.07a18 18 0 0 0-6 11.39 46.76 46.76 0 0 0 .78 11.79h.36v.17c0-.01 0 .08 0 .12a5.25 5.25 0 0 0 .57 1.7 24.36 24.36 0 0 1 2.15 8.76 7.76 7.76 0 0 0 .3 2.21 11.14 11.14 0 0 0 1.13 1.94c1.33 2.17 1.64 4.8 2.1 7.3a57.72 57.72 0 0 0 2.55 9.57c1.53 4.24 3.6 8.58 2.9 13a13 13 0 0 0-.4 3.21 9.39 9.39 0 0 0 1.26 3.37c.5 1 1 2.06 1.4 3.12a2.52 2.52 0 0 0 .62 1.69c.12.33.22.67.32 1l.25.8a10.32 10.32 0 0 1 .31 1.36l-.06 1.05v1a2.49 2.49 0 0 1-.48.89 3.58 3.58 0 0 1-.26.29l-.24.27a1.8 1.8 0 0 0-.27.39h0a1.87 1.87 0 0 0-.08 1.15c0 .15.06.3.1.45l.8 3.23.25 1 .67 2.53v.1l.15.56.57 2.06.35 1.22.44 1.5q.5 1.74 1.05 3.48c3.57 11.78 7.4 23.5 9.76 35.57a3.83 3.83 0 0 0 1.43 2.14 8.24 8.24 0 0 0 2.49 1.34c.23 1.77.8 3.93.87 5 .22 3.5.38 7.2-.9 10.4a.84.84 0 0 0-.76.24 31 31 0 0 0-2.29 2.43l-4.7 5a7.75 7.75 0 0 0-1.06 1.29 4.51 4.51 0 0 0-.45 3.69 5 5 0 0 0 2.41 2.86 4 4 0 0 1 .76.43 4.51 4.51 0 0 0 .47.4 1.82 1.82 0 0 0 1 .19 35.71 35.71 0 0 0 7.87-1.34 6.31 6.31 0 0 0 3.25-1.53 6.08 6.08 0 0 0 1.11-2.16l.94-2.6a29.61 29.61 0 0 0 1.43-4.85 10 10 0 0 0-.25-5 1 1 0 0 0-.24.41l.68-4.37c.07-.43.13-.87.2-1.32.3 3.9-.27 7.8-.1 11.7a13.65 13.65 0 0 0-.39 2.19c.26 3.58 1.75 7.5 4.64 9.62a4.75 4.75 0 0 0 1.59.83 5.62 5.62 0 0 0 1.64 0 20.9 20.9 0 0 0 6.24-1.18 7.67 7.67 0 0 0 4.49-4.26 10 10 0 0 0 .45-3.08 11.83 11.83 0 0 0-.29-3.25 24.79 24.79 0 0 0-1.64-3.79 36.17 36.17 0 0 1-1.86-5.58l-.87-3.17c-.24-.9-.5-1.8-.8-2.68a4.49 4.49 0 0 0-1.11-2.11c-.36-.28-.6-.3-.76-.14v-.34a35.86 35.86 0 0 0 .23-3.71c-.24-2-1.83-3.63-2.86-5.4a10.56 10.56 0 0 1-1.14-2.86c-.06-.22-.1-.43-.14-.66a2.33 2.33 0 0 1 .57-.37l1.78 1c-1.57-11.8-.74-24.17-5.32-35.15-2-4.78-5.85-9.76-5.42-14.9a4.2 4.2 0 0 1 .47-6.7c.77-.42 1.72-.62 2.25-1.33a3.63 3.63 0 0 0 .51-1.29 204.58 204.58 0 0 1 9.88-29.65l2.74-6.3 3.1-7.05 3.78-8.58c1.28-2.9 2.57-6.2 1.36-9.1-.48-1.15-1.33-2.24-1.2-3.47a21.78 21.78 0 0 1 .74-2.29 5.7 5.7 0 0 0-.19-2.49 89.79 89.79 0 0 0-.82-3.23 18 18 0 0 1 2.41.46c.48-.8-.3-1.75-.76-2.57a8.69 8.69 0 0 1-.87-3.57l-1-10.1a17.9 17.9 0 0 1-.08-4.2c.2-1.48.77-2.9 1.06-4.37.55-2.83 0-5.75.18-8.64a38.74 38.74 0 0 1 1.32-7.52l.26-1.1a6 6 0 0 0 1.45.25h1.24a4 4 0 0 0 .55-.14h.12a6 6 0 0 0 .59-.23 23.82 23.82 0 0 1-.67-1.54c-.1-.2-.17-.42-.25-.63s-.23-.6-.33-.9-.2-.55-.3-.82l-.22-.7c-.07-.23-.2-.63-.28-1s-.18-.66-.27-1l.15-.3a8.77 8.77 0 0 0 1.65 1.13c2 3.45 3.8 7 5.48 10.58a3.36 3.36 0 0 0 .51-1.29 6.19 6.19 0 0 0 .71.91 10.6 10.6 0 0 0 2.33 1.71 6 6 0 0 0 2.76 1 5.15 5.15 0 0 0 3.53-1.53c2.9-2.55 4.36-6.34 5.7-10a75.29 75.29 0 0 0 4.3-14.73c.82-5.43.47-11.07 2-16.34-1.4-2.76-2.27-5.8-3.83-8.48a37.92 37.92 0 0 1-2.64-4.95 17.1 17.1 0 0 1-.47-11.44 1.57 1.57 0 0 0-1.83.1 3.83 3.83 0 0 0-1.1 1.6 14.19 14.19 0 0 0-1.09 6.72 2.68 2.68 0 0 1-.19 1.64 2.06 2.06 0 0 1-1.78.75 15.34 15.34 0 0 1-4.12-.75 38.28 38.28 0 0 0-11.48-1.12 9.11 9.11 0 0 0-1-1l-.43-.35-.44-.34-.22-.18a5 5 0 0 1-.42-.37 2.77 2.77 0 0 1-1-1.75 2.25 2.25 0 0 1 0-.26 1.94 1.94 0 0 1 0-.24 3.38 3.38 0 0 1 .23-.7 4.71 4.71 0 0 1 .22-.45l.1-.23c0-.07.07-.15.1-.22a6.59 6.59 0 0 0 .32-.84 6.13 6.13 0 0 0 .21-.87 6.54 6.54 0 0 0 .09-.89v-1.35a9.09 9.09 0 0 0-.37-1.78 9.87 9.87 0 0 0-.48-1.28 14.16 14.16 0 0 0-.85-1.58 24.18 24.18 0 0 0-2.14-2.91l-.6-.7-.6-.68a23.75 23.75 0 0 1-1.74-2.13 8.28 8.28 0 0 1-1-1.78 6.84 6.84 0 0 1-.21-.64 6.51 6.51 0 0 1-.18-1.24v-.4a15.44 15.44 0 0 1 .08-1.67c.08-.78.2-1.57.3-2.37l.22-1.6c0-.26.06-.53.1-.8l.16-1.6a15.24 15.24 0 0 0-.26-4.63 8.77 8.77 0 0 0-.47-1.48 9.39 9.39 0 0 0-1-1.8 13 13 0 0 0-5.56-4.33 25.6 25.6 0 0 0-5.09-1.63c-.7-.15-1.4-.28-2.08-.4-10.4-1.67-21.44 1.5-28 10-3.42 4.42-6.33 9.38-7.57 14.83s-.68 11.5 2.4 16.17c1.3 2 3 3.68 4.13 5.74.94 1.68 1.5 3.57 2.5 5.2a12.3 12.3 0 0 0 5.55 4.67l-.44.4a13.48 13.48 0 0 0-3.11.06c-1.06.18-2.1.6-3.16.72-1.32.17-2.67-.1-4 .08-2.46.32-4.48 2-6.35 3.65-2.2 1.9-4.54 4.14-4.7 7v.08l-1.47 2a7.89 7.89 0 0 0-.92 1.45c-.6 1.4-.26 3-.58 4.48a9.58 9.58 0 0 1-1.16 2.67 60.07 60.07 0 0 1-5 7.46 12.64 12.64 0 0 1-3.11 3.08 5.6 5.6 0 0 1-3.24.92 20.77 20.77 0 0 1-4.74-3.17 30.57 30.57 0 0 1-4.19-5.21c-2.38-3.43 5 6.83 2.62 3.4l-21.34-35.56a29 29 0 0 1-.84-5.06c0-.65-.27-1.5-.93-1.53a1.13 1.13 0 0 0-.75.36 4.34 4.34 0 0 0-1.39 3.7 5.13 5.13 0 0 0-3.27.58 1.87 1.87 0 0 0-.41 2.66v.27a1.42 1.42 0 0 0-.75 1.5 5.08 5.08 0 0 0-3.51.17c-1.05.6-1.45 2.32-.43 3a3.07 3.07 0 0 0-1.96 2.9zm133.68 5.1a16.52 16.52 0 0 0 1.87.48 29.85 29.85 0 0 1 5.8 2 3.18 3.18 0 0 1 1.51 1.13 3.36 3.36 0 0 1-.18 2.84l-2.64 7.13c-.42 1.12-.83 2.24-1.35 3.3a22.13 22.13 0 0 1-.66 1.28q-.12-.36-.24-.7a58.51 58.51 0 0 1-1.9-6.64 90.29 90.29 0 0 1-1.12-5.86 28.64 28.64 0 0 0-1.11-4.98zm-2.76-5.6l.2.14a2.25 2.25 0 0 1 .69.48 1.07 1.07 0 0 1 0 1zm-4.77-6.87l3.16.46a4.15 4.15 0 0 1 2.13.73 1.43 1.43 0 0 1 .29 2 4.76 4.76 0 0 1-.7.47 2 2 0 0 0-.75 2.07 22.41 22.41 0 0 0-1.81-2.81 13.9 13.9 0 0 0-2.11-2.16c-.07-.25-.13-.5-.2-.76zm-30.37 227.33a11.28 11.28 0 0 0 1.17 0 11.23 11.23 0 0 0-.19 2.84z" transform="translate(-50.4 -87.11)" fill="url(#A)"/><use xlink:href="#C" fill="#3a3768"/><use xlink:href="#C" class="E"/><path d="M956.54 407.68l1.13 5.87a56.16 56.16 0 0 0 1.89 6.62 6.36 6.36 0 0 1 .59 3 5.61 5.61 0 0 1-.73 1.82c-2.5 4.45-5.9 8.75-6.18 13.85-.07 1.27 0 2.64-.68 3.7q-2.9-6.24-6.4-12.18c-2.44-4.14-5.15-8.32-5.85-13.08a24.8 24.8 0 0 1 .08-6.72 14.63 14.63 0 0 1 2.42-7.07c1.65-2.16 6.2-5.43 9.14-4.76 3.45.84 4.16 6.17 4.6 8.96z" class="J"/><path d="M868.17 431.67c-3.28-1.34-6.62-2.75-9.23-5.16a30.11 30.11 0 0 1-4.19-5.2l-7.7-11.14c-1.83-2.65-3.7-5.43-4.1-8.62a28.37 28.37 0 0 1-7.71-17.5c0-.66-.26-1.5-.92-1.53a1.16 1.16 0 0 0-.76.36 4.35 4.35 0 0 0-1.38 3.7 5.13 5.13 0 0 0-3.27.57c-.92.66-1.16 2.3-.17 2.84a1.41 1.41 0 0 0-1 1.59 5 5 0 0 0-3.51.17c-1 .6-1.45 2.3-.43 3a3 3 0 0 0-2 2.93 5.88 5.88 0 0 0 1.33 3.45c3 4 8.2 5.58 11.63 9.16a26.56 26.56 0 0 1 3 4l9.95 15.14c3.16 4.8 6.4 9.7 10.92 13.3a9.88 9.88 0 0 0 4.06 2.16 4.49 4.49 0 0 0 4.27-1.18c1-1.13 1.15-2.76 1.25-4.26.24-2.55-.2-5.2-.03-7.77z" class="H"/><path d="M901.48 641.9a8.65 8.65 0 0 0-1.06 1.29 4.51 4.51 0 0 0-.45 3.69 5 5 0 0 0 2.41 2.85 4.71 4.71 0 0 1 .76.44 4.51 4.51 0 0 0 .47.4 1.82 1.82 0 0 0 1 .19 36.41 36.41 0 0 0 7.87-1.34 6.31 6.31 0 0 0 3.25-1.53 6.47 6.47 0 0 0 1.11-2.15l.93-2.6a30.54 30.54 0 0 0 1.44-4.84 10.08 10.08 0 0 0-.26-5 1.63 1.63 0 0 0-.35 1 11.07 11.07 0 0 1-2 4.85 4.94 4.94 0 0 1-.78 1 5.09 5.09 0 0 1-2.34 1 28.76 28.76 0 0 1-5 .64 1.56 1.56 0 0 1-.68-.08 1.19 1.19 0 0 1-.57-.71 3 3 0 0 1 0-2c.45-1.26 1.7-2.1 2.3-3.3.44-.9-.17-1.87-1.08-1.12a27.74 27.74 0 0 0-2.29 2.43z" class="E"/><use xlink:href="#D" fill="#ee8e9e"/><use xlink:href="#D" class="F"/><path d="M877.15 499.74a.37.37 0 0 0 0 .11 5 5 0 0 0 .56 1.7 24.58 24.58 0 0 1 2.16 8.75 7.41 7.41 0 0 0 .29 2.21 11.81 11.81 0 0 0 1.13 1.94c1.33 2.17 1.64 4.78 2.1 7.3a57.61 57.61 0 0 0 2.55 9.56c1.53 4.23 3.6 8.57 2.9 13a13 13 0 0 0-.4 3.2 9.24 9.24 0 0 0 1.25 3.37c.52 1 1 2.06 1.4 3.12s.85 2.3 1.2 3.48c.4 1.44.7 3.14-.26 4.3a4.88 4.88 0 0 0-.77.94 2.5 2.5 0 0 0 0 1.62q.8 3.42 1.74 6.83l1.5 5.32c3.86 12.94 8.22 25.75 10.8 39 .37 1.9 2.8 3.28 4.7 3.7a6.14 6.14 0 0 0 5.41-1.45 3.32 3.32 0 0 0 .38-.37c2-2.14 2.27-5.42 2.13-8.38-.67-13.64-7.54-26.12-10.8-39.38A75.84 75.84 0 0 1 905 555c-.77-16.47-1.07-33.87 3.58-49.68 1-3.3 2.1-7 .37-10-1.1-1.86-3.13-3-5.14-3.76a33.1 33.1 0 0 0-25.69.66 8 8 0 0 0 0 1 10.13 10.13 0 0 1-.52 4.54 5.57 5.57 0 0 0-.45 2.01zm56.37 128.4l.87 3.17a35.43 35.43 0 0 0 1.85 5.58 24.31 24.31 0 0 1 1.65 3.78 12.22 12.22 0 0 1 .28 3.25 9.93 9.93 0 0 1-.45 3.07 7.67 7.67 0 0 1-4.49 4.26 21.21 21.21 0 0 1-6.23 1.17 5 5 0 0 1-1.64 0 4.57 4.57 0 0 1-1.59-.83c-2.9-2.12-4.38-6-4.64-9.6a11.82 11.82 0 0 1 .49-2.45c.22-.3 2.4.93 1.47 2-1.38 1.53 2.67.74 4.73.6a19 19 0 0 0 2.68-.44l3.33-.7c1.1-.24 2.35-.6 2.73-1.66s-.46-2.3-1.1-3.3c-1.75-2.7-2.2-6-2.6-9.17-.08-.63-.86-4.68.75-3.42a4.5 4.5 0 0 1 1.12 2.11c.3.8.55 1.7.8 2.6z" class="E"/><path d="M892.02 561.77c1-1.15.67-2.85.26-4.28l-.5-1.6 13.1-4.42.15 3.5a76.05 76.05 0 0 0 2.12 14.62c3.27 13.25 10.14 25.73 10.8 39.36.15 3.14-.18 6.65-2.5 8.77a6.19 6.19 0 0 1-5.42 1.44c-1.9-.4-4.34-1.78-4.7-3.7-2.6-13.25-7-26.06-10.8-39q-1.8-6-3.25-12.16a2.54 2.54 0 0 1 0-1.61 4.88 4.88 0 0 1 .76-.94z" class="F"/><path d="M928.2 613.76c1 1.78 2.6 3.36 2.85 5.4a30.92 30.92 0 0 1-.23 3.71 11.64 11.64 0 0 0 .55 3q1.9 6.9 4.4 13.62a3.73 3.73 0 0 1 .35 1.85 3.26 3.26 0 0 1-2.17 2.16c-3.1 1.33-6.63 1.24-10 1.1a5.23 5.23 0 0 1-2.82-.66c-1.2-.83-1.5-2.47-1.6-3.93-.23-4.25.5-8.52 0-12.75-.16-1.54-.5-3.06-.73-4.58a13.43 13.43 0 0 1 .2-6.4 14.65 14.65 0 0 1 2.39-4 12.52 12.52 0 0 1 3.33-3.32c.4-.24 1.53-1 1.93-.5.2.23.12.85.15 1.14a11.37 11.37 0 0 0 .23 1.32 10.85 10.85 0 0 0 1.16 2.85z" fill="#ee8e9e"/><path d="M903.03 505.05a3.62 3.62 0 0 1 .25 3c-.44 1.8-1.16 3.54-1.75 5.3a73.87 73.87 0 0 0-2.26 9.65c-.55 2.95-1.7 6.23-1.23 9.2a65.55 65.55 0 0 0-7 21.81c-.27 1.95 4.07 4.48 4 6.45-.16 3.92-3.3 4.23-1 7.36.1.16-.87 3.66-.74 3.8.94 1.13 2.13 2 3.14 3.1a23.63 23.63 0 0 1 3.31 4.85c6 10.78 14.6 23 11.93 35a2.14 2.14 0 0 0 1.14 2.16 5.89 5.89 0 0 0 2.52.58h.42c2-2.14 2.27-5.42 2.13-8.38-.67-13.64-7.54-26.12-10.8-39.38a75.84 75.84 0 0 1-2.12-14.61c-.77-16.47-1.07-33.87 3.58-49.68 1-3.3 2.1-7 .37-10-1.1-1.86-3.13-3-5.14-3.76a33.1 33.1 0 0 0-25.69.66 8 8 0 0 0 0 1 10.13 10.13 0 0 1-.52 4.54 5.57 5.57 0 0 0-.51 2l-.24-2.6c5.35.77 10.93 4.26 16.28 5a37.18 37.18 0 0 1 8.16 1.8 3.54 3.54 0 0 1 1.78 1.15z" class="F"/><path d="M940.05 475.9l1.9 6.93a5.66 5.66 0 0 1 .19 2.48 21.78 21.78 0 0 0-.74 2.29c-.12 1.23.73 2.3 1.2 3.46 1.2 2.92-.08 6.2-1.35 9.1l-6.9 15.57-2.73 6.3a204.49 204.49 0 0 0-9.88 29.61 3.63 3.63 0 0 1-.51 1.29c-.53.7-1.48.9-2.25 1.33a4.19 4.19 0 0 0-.46 6.69c-.44 5.15 3.42 10.12 5.4 14.9 4.57 11 3.74 23.32 5.32 35.1l-1.78-1c-1.7.78-1.65 3.2-2.56 4.83-1.38 2.46-4.75 2.8-7.56 2.62a5.9 5.9 0 0 1-2.53-.58 2.13 2.13 0 0 1-1.13-2.16c2.65-12-6-24.25-11.94-35a23.3 23.3 0 0 0-3.31-4.84c-1-1.07-2.2-2-3.14-3.1-2.63-3.16-3-7.62-2.8-11.73a65.72 65.72 0 0 1 7.47-27.7c-.47-3 .7-6.25 1.24-9.2a72.26 72.26 0 0 1 2.25-9.65c.6-1.77 1.3-3.5 1.75-5.3a3.62 3.62 0 0 0-.24-3 3.52 3.52 0 0 0-1.69-1.09 37.63 37.63 0 0 0-8.16-1.8l-18.38-2.64c-.6-3.78-1.2-8-.78-11.78a18.11 18.11 0 0 1 13-15.16 2.73 2.73 0 0 1 2.39.15 95.83 95.83 0 0 1 48.67 3.11z" class="E"/><use xlink:href="#E" class="H"/><use xlink:href="#E" class="F"/><circle cx="913" cy="365.81" r="16.69" class="H"/><g class="J"><path d="M921.8 393.4l-11.3 1.9a42.37 42.37 0 0 1-8.46.85 24.2 24.2 0 0 0-4.66 0c-1.07.18-2.1.6-3.17.72-1.32.17-2.66-.08-4 .1-2.46.3-4.48 2-6.35 3.64-2.2 1.9-4.54 4.13-4.7 7a2 2 0 0 0 .13 1 2.93 2.93 0 0 0 .84.88c2.08 1.7 3.25 4.25 4.73 6.5a25.11 25.11 0 0 0 5.62 6.06c.5-.32 1.44.52 1.22 1.06s-.75.93-.93 1.5c-.4 1.28 1.18 2.22 1.83 3.4s.33 2.66.4 4 .67 2.93.87 4.43c.45 3.47-1.26 7.13 0 10.42a3.27 3.27 0 0 0-3.25 2.53 9.55 9.55 0 0 0 .13 4.44 6.11 6.11 0 0 0-3 5.58 1 1 0 0 1-.72 1.33 5.63 5.63 0 0 0-3.47 5.23 2.57 2.57 0 0 1-.1 1.11 2.44 2.44 0 0 1-.82.84 6.52 6.52 0 0 0-2.43 5.1 3.74 3.74 0 0 0 1.72 3.34 31.12 31.12 0 0 0 7.6 2.26 68.3 68.3 0 0 0 7.36 1.3 66 66 0 0 0 6.89.21l15.14-.06c4.25 0 8.5 0 12.76-.32 4-.26 8-.76 11.85.28.48-.8-.3-1.75-.76-2.57a8.61 8.61 0 0 1-.87-3.56l-.95-10.1a17.73 17.73 0 0 1-.08-4.18c.2-1.5.77-2.9 1.06-4.37.55-2.83 0-5.75.18-8.63a38.51 38.51 0 0 1 1.32-7.51l3-12.35a47.67 47.67 0 0 1 1.48-6.19q3.45-8.9 7.25-17.64a1.82 1.82 0 0 0-.13-1.56l-2.5-4.5a28.66 28.66 0 0 0-2.29-3.65 14.45 14.45 0 0 0-8.45-5.19 14.94 14.94 0 0 0-9.82 1.46c-1.17.62-2.25 1.4-3.44 2-2 1-4.46 2.06-6.72 1.9z"/><path d="M881.65 404.4l-3.94 5.26a6.7 6.7 0 0 0-.92 1.45c-.6 1.38-.27 3-.6 4.46a9.3 9.3 0 0 1-1.15 2.67 61.58 61.58 0 0 1-5 7.46 13.37 13.37 0 0 1-3.11 3.08 5.16 5.16 0 0 1-4.2.74 2.63 2.63 0 0 1 1.38 1.25 15.26 15.26 0 0 1 1 9.76 10 10 0 0 1-1.1 3.2 4.8 4.8 0 0 1-2.51 2.17 3.7 3.7 0 0 0 4.36 3.13 7.29 7.29 0 0 0 2.16-1.08l6.33-4.1a16.82 16.82 0 0 0 2.95-2.21c1.18-1.18 2-2.67 3.16-3.9 2-2.07 4.84-3.3 6.23-5.8.87-1.56 1-3.4 1.55-5.12l1.2-3.3a14.7 14.7 0 0 0-1.3-10.54c-1.63-3.25-4.16-5.83-6.5-8.6z"/></g><use xlink:href="#F" fill="#3a3768"/><use xlink:href="#F" class="E"/><path d="M954.04 432.1a75.88 75.88 0 0 1-7.16-31.64c0-5.35.15-11.56-4-15-1.1-.9-2.6-1.8-2.53-3.24a5.11 5.11 0 0 1 .7-1.84 8.56 8.56 0 0 0-.28-7 24.24 24.24 0 0 0-4.18-5.85 11.63 11.63 0 0 1-2.91-4.55 9.94 9.94 0 0 1-.12-3.31c.4-4.18 1.64-8.55 0-12.44-2-5-7.8-7.12-13.16-8.05a3 3 0 0 1 1.44-.09c5.5.88 11.6 3 13.7 8.14 1.58 3.9.36 8.26 0 12.44a9.44 9.44 0 0 0 .12 3.31 11.61 11.61 0 0 0 2.9 4.55 24.24 24.24 0 0 1 4.18 5.85 8.52 8.52 0 0 1 .28 7 5.09 5.09 0 0 0-.69 1.84c-.07 1.43 1.42 2.33 2.52 3.24 4.12 3.4 3.94 9.62 4 15a75.72 75.72 0 0 0 7.16 31.64 9.35 9.35 0 0 1-5.3 1 9.05 9.05 0 0 0 3.34-1zm-8.34 5.66a35.78 35.78 0 0 1-2.46-7.08 9.13 9.13 0 0 0 2.37 1.57 37.2 37.2 0 0 0 2 5.51 5.24 5.24 0 0 1-3.23.41 5.08 5.08 0 0 0 1.32-.41zm-29.93-91.26a11.52 11.52 0 0 0-3.18-.75h.38a11.18 11.18 0 0 1 2.82.21l-.02.54zm-11.37 17a36.62 36.62 0 0 0 5.06-2.6 4.44 4.44 0 0 1 1.48-.6 5.46 5.46 0 0 1 1.56.09 6.26 6.26 0 0 0-1.08.51 36.51 36.51 0 0 1-5.05 2.6 22.78 22.78 0 0 1-8.47 1.1 20.07 20.07 0 0 0 6.5-1.1zm13-3.6l.1.45a9.8 9.8 0 0 1-2.48.07 11 11 0 0 0 2.39-.52z" class="B"/><path d="M952.14 437.32a6.1 6.1 0 0 0 1.64 4.88 10.87 10.87 0 0 0 2.32 1.71 6.3 6.3 0 0 0 2.76 1 5.21 5.21 0 0 0 3.53-1.54c2.9-2.55 4.36-6.33 5.7-9.95a74.65 74.65 0 0 0 4.31-14.71c.82-5.43.47-11.06 2-16.33-1.38-2.76-2.26-5.8-3.83-8.46a39.86 39.86 0 0 1-2.64-4.95 17.1 17.1 0 0 1-.47-11.42 1.54 1.54 0 0 0-1.82.09 3.83 3.83 0 0 0-1.1 1.6 14.17 14.17 0 0 0-1.09 6.71 2.67 2.67 0 0 1-.19 1.64 2.06 2.06 0 0 1-1.78.75 15.8 15.8 0 0 1-4.12-.74 38.19 38.19 0 0 0-12.69-1.05 6 6 0 0 0-2.48.6 2.3 2.3 0 0 0-1.27 2.07l10.14 1.5a4.19 4.19 0 0 1 2.14.73 1.45 1.45 0 0 1 .29 2 4 4 0 0 1-.7.46 2.09 2.09 0 0 0 .08 3.34 2.14 2.14 0 0 1 .69.48c.42.56-.13 1.3-.3 2a2.48 2.48 0 0 0 1.22 2.53 8.92 8.92 0 0 0 2.83.95 29.82 29.82 0 0 1 5.8 2 3.18 3.18 0 0 1 1.51 1.13 3.39 3.39 0 0 1-.18 2.84l-2.64 7.12c-.42 1.12-.83 2.23-1.35 3.3-.67 1.4-1.5 2.7-2.2 4.1a40.83 40.83 0 0 0-1.65 4c-1.35 3.6-4 5.78-4.46 9.63z" class="H"/><path d="M515.43 162.06v335.4a111.1 111.1 0 0 0-34.63-5.34c-49.87 0-90.37 35.3-90.37 85.16s40.5 84.77 90.37 84.77 90.62-36.72 90.62-90v-232.9h263v158.33a111.05 111.05 0 0 0-34.63-5.34c-49.87 0-90.37 35.3-90.37 85.16s40.5 84.77 90.37 84.77 90.62-36.72 90.62-90v-410zm319 125h-263v-69h263zm-585-162v225.1c-33.393-19.264-75.563-13.7-102.803 13.6s-32.754 69.457-13.442 102.822 58.632 49.593 95.854 39.56 63.062-43.822 63-82.373v-213.4h85.4v-85.3zM226.6 652.62a54.34 54.34 0 0 0-15.65-5.54 71.57 71.57 0 0 0 11.71-2.63c10.17-3.22 15.3-7.54 11.45-9.65s-15.22-1.22-25.4 2a39.2 39.2 0 0 0-9.75 4.33c-1.05-2.23-3.9-4.82-8.37-7.27-9-5-21.18-7.47-27.12-5.6s-3.43 7.42 5.6 12.4a54.13 54.13 0 0 0 14 5.21 82.33 82.33 0 0 0-9.65 1.71c-11.07 2.66-17.47 6.67-14.3 9s14.73 2 25.8-.64a48.22 48.22 0 0 0 11.6-4.1c.9 2.3 3.82 5 8.52 7.6 9 5 21.18 7.47 27.12 5.6s3.42-7.46-5.58-12.42zm63.7-73.08a26.5 26.5 0 0 0-7.59-2.69 35.72 35.72 0 0 0 5.68-1.27c4.94-1.57 7.43-3.66 5.56-4.7s-7.4-.6-12.33 1a19.68 19.68 0 0 0-4.73 2.1c-.5-1.08-1.9-2.34-4.06-3.53-4.4-2.4-10.3-3.62-13.17-2.7s-1.66 3.6 2.72 6a26.21 26.21 0 0 0 6.82 2.52 41 41 0 0 0-4.69.84c-5.37 1.28-8.48 3.23-6.94 4.35s7.15 1 12.52-.3a23.78 23.78 0 0 0 5.64-2c.44 1.1 1.85 2.44 4.13 3.7 4.4 2.4 10.28 3.63 13.17 2.72s1.66-3.6-2.73-6.02zm-171.38-74.1a16.63 16.63 0 0 0-4.78-1.68 20.82 20.82 0 0 0 3.58-.8c3.1-1 4.65-2.3 3.48-2.93s-4.62-.37-7.7.6a12.28 12.28 0 0 0-3 1.31 5.85 5.85 0 0 0-2.54-2.2c-2.74-1.5-6.43-2.27-8.24-1.7s-1 2.25 1.7 3.76a16.29 16.29 0 0 0 4.27 1.58 24.63 24.63 0 0 0-2.94.53c-3.36.8-5.3 2-4.35 2.72s4.48.6 7.84-.2a14.94 14.94 0 0 0 3.53-1.25 5.57 5.57 0 0 0 2.58 2.31c2.75 1.5 6.44 2.27 8.24 1.7s1.07-2.26-1.67-3.77z" class="C"/><path d="M364.43 125.06v71.3h-85.4v213.4c.01 32.703-18.683 62.532-48.12 76.78s-64.428 10.406-90.07-9.9c22.515 28.492 60.603 39.6 94.905 27.68s57.292-44.256 57.285-80.57v-213.4h85.4v-85.3z" class="B"/><path d="M123.47 143.58l.3 2.18 9.45 1.34 2-1.37c2.24-1.47 6-3.66 9.2-4.28 4.95-1 20.7-8.05 15.62-8.5s-4.55.6-4.55.6-5.6-5.5-11.36-.47c-4.38 3.8-14 7.9-18.4 9.66l-2.26.86z" class="G"/><path d="M161.22 118.52a16 16 0 0 1 4.53-1.16 5.51 5.51 0 0 1 4.31 1.44c.6.63 1 1.44 1.6 2.08 2.88 3.08 8.47.78 11.94 3.17 2.13 1.48 2.8 4.27 3.55 6.76s2.14 5.22 4.68 5.75a13.88 13.88 0 0 0 3.69-.14 3.63 3.63 0 0 1 3.32 1.22c1.18 1.8-.45 4.78 1.26 6.06 1.53 1.13 4.3-.45 5.37 1.12a2.34 2.34 0 0 1-.37 2.6 18.07 18.07 0 0 0-1.74 2.18 3.3 3.3 0 0 0 3.25 4.82c1.08-.1 2.23-.72 3.17-.2a2.24 2.24 0 0 1 1 1.77 4.65 4.65 0 0 1-4.18 4.89c-1.84.12-3.53-.88-5.17-1.72s-3.57-1.55-5.27-.85a8.14 8.14 0 0 0-2.12 1.49 23.21 23.21 0 0 1-6.52 3.86c-2.08.82-4.5 1.3-6.5.3-2.25-1.15-3.4-3.95-5.8-4.8s-5.1.74-7.38 2.1-5.33 2.48-7.4.82c-2.22-1.8-1.54-5.38-2.9-7.9a7.75 7.75 0 0 0-2.17-2.39c-1.52-1.17-3.25-2.05-4.78-3.2a8 8 0 0 1-3.26-4.58c-.45-2.27.63-4.54 1.86-6.5s2.66-3.88 3.06-6.15c.3-1.7 0-3.47.4-5.15a6.35 6.35 0 0 1 4.12-4.35c1.12-.38 1.32-.28 1.9-1.27a4 4 0 0 1 2.54-2.07z" class="E"/><path d="M199.1 138.33a8.51 8.51 0 0 1 .18 3 8.11 8.11 0 0 1-.18-3zm4.3 11.45a3.27 3.27 0 0 0-.34 1.1 3.38 3.38 0 0 1 .12-2.8 17.79 17.79 0 0 1 1.74-2.17 3.69 3.69 0 0 0 .5-1l.08.1a2.34 2.34 0 0 1-.36 2.59 17.88 17.88 0 0 0-1.74 2.19zm-52.98-2.68c1.53 1.16 3.25 2 4.77 3.2a7.62 7.62 0 0 1 2.17 2.39c1.35 2.5.67 6.1 2.9 7.9 2.06 1.66 5.12.54 7.4-.82s4.88-3 7.37-2.1 3.54 3.65 5.8 4.8c2 1 4.4.52 6.5-.3a23.3 23.3 0 0 0 6.51-3.86 8.6 8.6 0 0 1 2.12-1.5c1.7-.7 3.64 0 5.28.86s3.33 1.84 5.16 1.72a4.7 4.7 0 0 0 4.15-4.11 3 3 0 0 1 .22.88 4.64 4.64 0 0 1-4.15 4.92c-1.83.12-3.53-.88-5.16-1.7s-3.57-1.55-5.28-.86a8.83 8.83 0 0 0-2.12 1.49 23.33 23.33 0 0 1-6.51 3.87c-2.08.8-4.5 1.3-6.5.3-2.26-1.15-3.4-3.95-5.8-4.8s-5.1.73-7.37 2.1-5.34 2.48-7.4.8c-2.22-1.8-1.54-5.37-2.9-7.9a7.7 7.7 0 0 0-2.17-2.38c-1.5-1.17-3.24-2.05-4.77-3.2a8 8 0 0 1-3.27-4.58 5.41 5.41 0 0 1-.1-1.2 8.36 8.36 0 0 0 3.15 4.08z" class="B"/><use xlink:href="#G" fill="#4c4981"/><use xlink:href="#G" class="B"/><path d="M228.92 250.8s4.76 2.46 9.2 5.3c3.18 2 6.2 4.27 7.17 5.94 2.36 4 13.83 8.34 13.83 8.34l11.38 8.66c2.68.9 5.3 4.15 6.36 5.6l.5.72 4.56-.6 2.4-3.12s.6-6.88-4.13-6.8a6.52 6.52 0 0 1-2.67-.69c-5.1-2.25-12.23-9.35-12.23-9.35s-12.12-15.14-15.75-15.64a6 6 0 0 1-1.14-.29c-3.7-1.3-9-6.05-9-6.05zm-47.02 43.76c1.2 7.27 6.72 21.17 8.5 24.07 2.2 3.6 3.35 10.78 3.35 10.78l.65 5a5.8 5.8 0 0 0 .72 1.94 10.57 10.57 0 0 0 .64 1l9.13-2.8s-.53-2.1-1.33-4.5-2-5.44-3.14-6.56c-2.23-2.2-2.56-9.92-2.56-9.92s-1.86-14.86-2.43-16.73a25.8 25.8 0 0 1-1-5.48 41.92 41.92 0 0 1-.16-3.43 70.09 70.09 0 0 0-1.44-11l-10.65 1.93-.28 11.9a7.94 7.94 0 0 0 .01 3.81z" class="G"/><path d="M276.85 284.65l.5.72 4.56-.6 2.4-3.12s.6-6.88-4.13-6.8a6.52 6.52 0 0 1-2.67-.69c-.4 2.06 1.92 3.77 1.92 3.77s1 .7.73 3.93c-.15 2.2-2.1 2.67-3.32 2.78z" class="B"/><path d="M276.35 285.07c.3 1.1 3.18 2.74 5.18 3.76l1.9.93c.46.23 2.88-2.46 3.2-4.63s6.1-8.92 6.1-8.92a24.2 24.2 0 0 0 2.14-8.45c.22-2.95-1-3.2-2.45-2.52a9.69 9.69 0 0 0-2.74 2.15 7.32 7.32 0 0 1-3.55 1.84 17.37 17.37 0 0 0-5.11 2.18c-1.4.9-2.76 2-3 3-.53 2.13 1.9 3.93 1.9 3.93s1 .7.73 3.93-4.33 2.7-4.3 2.8z" class="D"/><path d="M281.53 288.83l1.9.93c.46.23 2.88-2.46 3.2-4.63s6.1-8.92 6.1-8.92a24.2 24.2 0 0 0 2.14-8.45c.22-2.95-1-3.2-2.45-2.52-.24 2.34-.83 6.9-2 9.26-1.46 2.82-7.3 11.88-8.9 14.33zm-86.33 47.34l-.1.17a10.57 10.57 0 0 0 .64 1l9.13-2.8-1.33-4.5c-3.6-1-8.8 5.3-8.8 5.3z" class="B"/><path d="M194.6 342.97s7.62 2.67 11 2.26c2.6-.3 2.72-1.52 2.54-4l-.2-2.78c-.17-4.4-1.94-5.3-1.94-5.3-2.9-7.6-11.25 2.6-11.25 2.6l.43.84a9.2 9.2 0 0 0-.85 4.15 12.12 12.12 0 0 0 .26 2.22z" class="D"/><path d="M194.6 342.97s7.62 2.67 11 2.26c2.6-.3 2.72-1.52 2.54-4a8.07 8.07 0 0 1-6.21 1.78 24.43 24.43 0 0 1-7.59-2.26 12.12 12.12 0 0 0 .26 2.22z" class="B"/><path d="M156.83 158.15l3 13 .6 2.68 11.2 1.42 6.18-2.24s1.72-5.88.3-10.3a6.52 6.52 0 0 0-2.86-3.77 6.35 6.35 0 0 1-1.19-.92 5.22 5.22 0 0 1-1-1.43 5.91 5.91 0 0 1-.53-2.07c-.3-3.5 1.9-7.35 1.9-7.35s-13.1-4.47-12.08-1.58c.67 1.87-1.18 5.13-2.56 7.2l-1.36 1.88z" class="G"/><circle cx="168.65" cy="141.76" r="11.38" class="B"/><circle cx="168.6" cy="141.34" r="11.38" class="G"/><path d="M157.65 201.4c.54 2.5 3 6.46 3 6.46l15.9 3.9 11.35-11.88v-.08c-.35-1.1-4.68-15.12-1.55-18.57 3.28-3.6 2-13.72 2-13.72s-5.67-6.52-6.82-8.1-8.5-2.82-8.5-2.82c.37.5.7 1 1 1.43a14 14 0 0 1 1.81 3.84 5.74 5.74 0 0 1-.15 4.17 4.58 4.58 0 0 0-.39 1.07c-1.24 5.43-6.9 4.67-9.15 4.13-.58-.14-.94-.26-.94-.26l-8.8.28s1.55 26.78 1.18 28.9a3.42 3.42 0 0 0 .09 1.24z" class="J"/><path d="M156.47 172.64l9.85-1.3h-.18l-.93-.26-8.8.28.07 1.27zm11.05 36.94l4.27 1.04 6.73-.88 1.75-1.83-12.75 1.67zm7.1 1.74l1.93.47.8-.83-2.72.36z" fill="#925978"/><path d="M157.65 201.4l4.88.4 13.1-.5v-13.67a19.39 19.39 0 0 0-5.28-3.48c-2.28-.8-5-3.2-4.46-9.6 0-.37.06-.75.1-1.14a14.68 14.68 0 0 0 .12-2.15 11.5 11.5 0 0 0-3.63-8.42 1.73 1.73 0 0 0-.19-.17l-2.13-9.92a2.12 2.12 0 0 0-.43.06c-.75 1.1-1.36 1.88-1.36 1.88l-1.57 3.44 3 13-3.4.1s1.55 26.78 1.18 28.9a3.42 3.42 0 0 0 .07 1.24z" class="B"/><g class="D"><path d="M162.1 201.9l13.1-.48v-13.68a19.51 19.51 0 0 0-5.27-3.48c-2.4-.84-5.28-3.48-4.35-10.73a11.87 11.87 0 0 0-3.48-10.63l-.2-.17-2.13-9.92a4.61 4.61 0 0 0-3.37 1.93 8.45 8.45 0 0 1-.79 1.16 2 2 0 0 1-2.63.78c-1.38-.6-7.32-3.12-8.65-.66s-1.58 17.1-1.58 17.1a11.19 11.19 0 0 1 3.85 6.33c.9 4.2 2.43 4.3 2.43 4.3l1.64 12s1.5 2.6.38 4.05"/><path d="M155.6 155.9l2.23 6.68 4.26.37-.2-.17-2.13-9.92a4.61 4.61 0 0 0-3.37 1.93 8.45 8.45 0 0 1-.79 1.11z"/></g><path d="M123.47 143.58l.3 2.18 9.45 1.34 2-1.37-8.16-2c-.9-.28-1.5-.52-1.53-.68s.06-.2.2-.3l-2.26.84z" class="B"/><path d="M112.4 157.7s10.7 8.13 17.35 9.44c0 0 9.34 2.76 13 6l4-15.42-2.45-1.7s-2.93 1.8-5.45 1.2-5.3-1-5.3-1a41.06 41.06 0 0 0-6.79-1.86c-1.8-.15-1.07-2.5.73-3.73a3.91 3.91 0 0 1 .75-.42 2.32 2.32 0 0 0 3 .68 6.85 6.85 0 0 0 1.76-1.64h0a22.83 22.83 0 0 0 2-3c0 0-5.6-1.2-8.37-2.06-.9-.28-1.5-.52-1.53-.68-.08-.64 5-2.66 5-2.66s-4.34-2.1-6.1-.57c0 0 1.14.85.22 1.7s-12 9.37-12 9.37-5.47 2.7.2 6.34z" class="D"/><path d="M121.6 149.8l5.93.85a3.91 3.91 0 0 1 .75-.42 2.32 2.32 0 0 0 3 .68 6.85 6.85 0 0 0 1.76-1.64h0a23.44 23.44 0 0 0 1.62-2.53l-8.37-2.06z" class="B"/><path d="M121.94 149.32l6.3.9a2.32 2.32 0 0 0 3 .68c1.8-1 3.76-4.66 3.76-4.66l-8.37-2.06z" class="D"/><path d="M239.43 242.9l-10.5 7.95s4.76 2.46 9.2 5.3c3.87-2.62 7.52-5 10.3-7.2-3.7-1.34-8.97-6.05-8.97-6.05zm-57.53 51.66a35.61 35.61 0 0 0 7.7-1.84s1.94-.42 4.82-1.38l-.16-3.43a70.09 70.09 0 0 0-1.44-11l-10.65 1.93-.28 11.9a7.94 7.94 0 0 0 .01 3.81z" class="B"/><path d="M162.93 246.24c2.14 3.17 8 16.65 8 16.65a57.34 57.34 0 0 0 4.46 6.87c2.33 2.93 3.94 9.52 5.7 14.8s-.52 4.28-.27 7 10.26-.8 10.26-.8 20.45-4.5 26.7-17 31.2-23.82 36.26-30.85-1.43-4.13-1.18-7.94-2.63-7-2.63-7-9.42-2.66-10.95-4.5-9.05-6.48-9.05-6.48-7.1-3.07-8-4.14-9.3-4.4-11.88-5-5.1-4.3-5.1-4.3-1.6.2-3.94-2.07-12.2-4.24-12.2-4.24c-16.83 12.4-28.46 10.67-28.46 10.67l-.27 2.34c-8.95 11.66.4 32.84 2.54 36z" class="D"/><path d="M160.4 210.2s14.55 4.8 28.74-12.93c-16.84 12.34-28.47 10.6-28.47 10.6zm25.03 8.28l20.75 29.24c1.2 1.03-19.72-29.6-20.75-29.24zm-9.03-2.16s13.53 21 13.26 23.84c0 0-13.06-20.2-13.26-23.84zm-7.88 5.78s2.5 11.75-1.26 18.4zm-5.2.67s-.16 10.17-1.3 12.26zm33.14-9.07l17.97 7.04-6.58.86-11.4-7.9zm-35.38-78.67c.9.6 1.65 1.55 2.72 1.7a4.28 4.28 0 0 0 2.21-.54c1.8-.78 3.8-1.38 5.67-.77 2.64.87 4.1 3.9 6.72 4.8a4.79 4.79 0 0 0 2.52.14 4.88 4.88 0 0 0 1.42-.58 4.57 4.57 0 0 0 2-2.84 5.88 5.88 0 0 0-2-5.54 12.27 12.27 0 0 0-5.59-2.54c-5.28-1.17-10.77-.78-16.16-.37a2.35 2.35 0 0 0-1.26.33c-.82.6-2.22 3.68-1.93 4.72.4 1.35 3.53.35 3.68 1.5z" class="B"/><path d="M161.03 134.6c.9.6 1.64 1.55 2.72 1.7a4.23 4.23 0 0 0 2.2-.55c1.8-.78 3.82-1.38 5.67-.77 2.64.88 4.1 3.92 6.72 4.8a4.7 4.7 0 0 0 2.52.14 4.6 4.6 0 0 0 1.42-.57 4.68 4.68 0 0 0 2.06-2.84 5.91 5.91 0 0 0-2.05-5.55 12.31 12.31 0 0 0-5.59-2.53c-5.28-1.18-10.76-.78-16.16-.38a2.38 2.38 0 0 0-1.26.34c-.8.6-2.22 3.68-1.93 4.72.4 1.4 3.53.33 3.68 1.5z" class="E"/><path d="M230.6 142.98l1.72 6.95 2.23-1.35 12.12-7.3s9.18-.34 9.9-7.72-10.2-.07-10.78.5-1.9 1.55-1.9 1.55l-11.28 6.3z" class="G"/><path d="M230.6 142.98l1.72 6.95 2.23-1.35c-.5-3.14-1.26-6-2-6.7zm-59.82 45.44l2.47 14.5 14.62-3.03c-.35-1.1-4.68-15.12-1.55-18.57 3.28-3.6 2-13.72 2-13.72s-5.67-6.52-6.82-8.1-8.5-2.82-8.5-2.82a5.91 5.91 0 0 1-.53-2.07 8.32 8.32 0 0 0-.56 1.55c0 2.64 1.07 4.46 3.9 5.8a8.75 8.75 0 0 0 .8.34 17.33 17.33 0 0 0 1.45.51l.24.07c4.7 1.4 5.73 4.22 5.73 4.22a10.79 10.79 0 0 1 2.14 7.6c-.46 4.45-15.37 13.73-15.37 13.73z" class="B"/><path d="M171.6 188.3l2.47 14.5 16.53-3.44s-.5-5.47-1.65-7.7-.92-10.9-.92-10.9c7-7.54 3.32-13.67 3.32-13.67s20.57-3.34 20.92-4 7.2-4.32 7.2-4.32 7.45-1.9 8.46-3a9 9 0 0 1 1.22-1.11 3.21 3.21 0 0 1 .4-.26l.55 4.75h.25a6.77 6.77 0 0 0 3.24-1.28c1.7-1.3-.45-15.55-2.1-16.05a1.9 1.9 0 0 0-.95 0 10.74 10.74 0 0 0-3.55 1.92l-.3.23-.1.1s-9.3 3.65-11.17 5.33-16.34 3.8-16.34 3.8-6.5 1.54-7.33.6-10.75-2.45-11.58-1-3.13 1.2-3.13 1.2c-1.63-1.88-2.76-1.15-3.45-.07a7.55 7.55 0 0 0-.88 2.09c0 2.88 1.27 4.77 4.7 6.13.52.2 1.08.4 1.7.58 4.72 1.4 5.73 4.22 5.73 4.22a10.77 10.77 0 0 1 2.15 7.6c-.45 4.46-15.4 13.74-15.4 13.74z" class="D"/><path d="M230.6 141.9a1.54 1.54 0 0 1 .53.06c1.65.5 3.8 14.76 2.1 16.06a6.7 6.7 0 0 1-2.89 1.25h-.25l-.55-4.75a3.21 3.21 0 0 0-.4.26v-.2a12.34 12.34 0 0 0-2.35-10.55z" class="B"/><path d="M229.52 154.5l.55 4.75a6.65 6.65 0 0 0 3.53-1.35c1.7-1.3-.45-15.55-2.1-16.05-1.3-.4-3.6 1.22-4.5 1.9a12.36 12.36 0 0 1 2.52 10.74zm-52.06 7.64l2.37-2.22-6.18-6a7.55 7.55 0 0 0-.88 2.09c.02 2.88 1.27 4.77 4.7 6.13z" class="D"/><path d="M160.92 133.76c.9.6 1.64 1.55 2.72 1.7a4.23 4.23 0 0 0 2.2-.55c1.8-.78 3.82-1.38 5.67-.77 2.64.88 4.1 3.92 6.72 4.8a4.7 4.7 0 0 0 2.52.14 4.57 4.57 0 0 0 3.48-3.41 4.55 4.55 0 0 0 .11-1.27 4.74 4.74 0 0 1 0 2.12 4.64 4.64 0 0 1-2.06 2.84 4.5 4.5 0 0 1-1.42.57 4.66 4.66 0 0 1-2.51-.14c-2.64-.9-4.1-3.93-6.73-4.8-1.85-.6-3.88 0-5.67.77a4.23 4.23 0 0 1-2.2.55c-1.07-.14-1.82-1.1-2.72-1.7-.15-1.16-3.28-.1-3.67-1.5a1.66 1.66 0 0 1 0-.64c.62 1.07 3.4.2 3.56 1.28zm9.68 32.74s-1.3 3.68.36 4.92c0 0-1.83-4.87-2.9-4.76" class="B"/><path d="M252.05 130.65s-8.45 7.3-2.34 8.5 2.34-8.5 2.34-8.5z" class="G"/><path d="M821.44 333.14h-263v232.94c0 53.26-40.75 90-90.62 90a100.13 100.13 0 0 1-34.82-6.11 97.54 97.54 0 0 0 47.82 12.11c49.87 0 90.62-36.72 90.62-90V339.14h250zm-263.02-52.1h13v-63h250.02v-6H558.42v69zm319-119v404c0 53.26-40.75 90-90.62 90a100.13 100.13 0 0 1-34.82-6.11 97.54 97.54 0 0 0 47.82 12.11c49.87 0 90.62-36.72 90.62-90v-410z" class="B"/><g class="C"><path d="M579.83 69.9c6.45 13.33 17 28.5 28.93 22.7s20.84-30.35 14.4-43.7-21.4-19.42-33.35-13.63-16.43 21.32-9.97 34.63z"/><path d="M605.36 101.03s2.33-.4 1.44-2.3a3.57 3.57 0 0 0-.28-.49 6.17 6.17 0 0 1-.89-2.48 9 9 0 0 1 .11-3.09l-6.35-.42s2.47 2.1 2.18 3.2a.63.63 0 0 1-.29.38 1 1 0 0 1-.42.18l-.48.14c-1.67.6-1 1.43-1 1.43.22 2.74 5.98 3.46 5.98 3.46z"/></g><path d="M601.28 95.82l4.48.62a5.58 5.58 0 0 1-.13-.69l-4.06-.3a.63.63 0 0 1-.29.38z" class="D"/><use xlink:href="#H" class="C"/><use xlink:href="#H" class="B"/><path d="M601.97 36.66s7.1-.86 9.1 3.87a5.71 5.71 0 0 0-2.55.15 3.62 3.62 0 0 1-1.66.32 9.52 9.52 0 0 0-4.9-4.34z" fill="#fff" class="B"/><path d="M609.6 133.04a2.51 2.51 0 0 0 .4-.4 5.41 5.41 0 0 1 1.52-1.2 5.33 5.33 0 0 1 .63-.32 9.27 9.27 0 0 1 2-.6 8 8 0 0 1 1-.11l-.9-4.3v-.06l-.4-1.87a13.58 13.58 0 0 1-.9 1.57c-.46.7-1 1.37-1.6 1.38a.71.71 0 0 1-.45-.17 1.36 1.36 0 0 1-.28-.36l-.27-.43c-1-1.44-1.63-.54-1.63-.54-1.14.4-1.6 1.77-1.78 3.14 0 .2 0 .4-.06.6a15.71 15.71 0 0 0 .1 2.91c0 0 1.03 2.15 2.6.77z" class="C"/><path d="M611.6 131.44a5.33 5.33 0 0 1 .63-.32l-.68-3.43v-.23c0-.08 0-.23-.06-.33a.71.71 0 0 1-.45-.17l.1.67v.27z" class="D"/><use xlink:href="#I" class="C"/><use xlink:href="#I" class="B"/><use xlink:href="#J" class="C"/><use xlink:href="#J" class="B"/><path d="M597.5 105.3c1.6 2.22 6.86-.16 6.86-.16s1.8-1.54 0-2.7a4.27 4.27 0 0 0-.49-.28 5.58 5.58 0 0 1-1.59-1.13l-.47-.5a9.36 9.36 0 0 1-1.12-1.77 7.42 7.42 0 0 1-.39-.93l-5.64 3a12.79 12.79 0 0 1 1.77.43c.8.26 1.6.64 1.76 1.16a.63.63 0 0 1 0 .48 1.19 1.19 0 0 1-.27.37 4.94 4.94 0 0 0-.33.37c-1.14 1.33-.1 1.68-.1 1.68z" class="C"/><path d="M598.18 102.9l4.13-1.82-.47-.5-3.62 1.85a.63.63 0 0 1-.04.48z" class="D"/><use xlink:href="#K" class="C"/><use xlink:href="#K" class="B"/><path d="M567.88 52s5.6-4.43 9.8-1.45a5.76 5.76 0 0 0-2.09 1.46 3.63 3.63 0 0 1-1.26 1.14 9.53 9.53 0 0 0-6.44-1.15z" fill="#fff" class="B"/><g class="B"><path d="M628.16 98.66l-1.3-6.23a12 12 0 0 1-.9 1.57 11.26 11.26 0 0 0 1.2 4.78 7 7 0 0 1 1-.12z"/><path d="M622.6 101.3a3 3 0 0 0 .4-.4 5.59 5.59 0 0 1 1.52-1.21 5.33 5.33 0 0 1 .63-.32 8.57 8.57 0 0 1 2-.59 7 7 0 0 1 1-.12l-1.3-6.23a12 12 0 0 1-.9 1.57c-.46.7-1.05 1.38-1.6 1.4a.73.73 0 0 1-.44-.18 1.23 1.23 0 0 1-.31-.32l-.26-.43c-1-1.44-1.64-.53-1.64-.53-2.57.93-1.74 6.64-1.74 6.64s1.03 2.1 2.64.73z"/><path d="M624.52 99.7a5.33 5.33 0 0 1 .63-.32l-.8-4a.73.73 0 0 1-.44-.18z"/><use xlink:href="#L"/><use xlink:href="#L" class="B"/></g><path d="M621.78 100.06a2.51 2.51 0 0 0 .4-.4 5.59 5.59 0 0 1 1.52-1.2 5.33 5.33 0 0 1 .63-.32 8.57 8.57 0 0 1 2-.59 7 7 0 0 1 1-.12l-1.3-6.23a12.74 12.74 0 0 1-.9 1.57c-.46.7-1 1.38-1.6 1.38a.66.66 0 0 1-.44-.17 1.38 1.38 0 0 1-.29-.36l-.26-.43c-1-1.44-1.64-.54-1.64-.54-2.57.94-1.74 6.65-1.74 6.65s1 2.14 2.62.76z" class="C"/><path d="M623.7 98.46a5.33 5.33 0 0 1 .63-.32l-.8-4a.66.66 0 0 1-.44-.17z" class="D"/><use xlink:href="#M" class="C"/><use xlink:href="#M" class="B"/><g class="B"><path d="M616.6 81.9a11.41 11.41 0 0 0 4.62 1.71 8.39 8.39 0 0 1 .46-.9l-5.88-2.44a12 12 0 0 1 .8 1.63z"/><path d="M618.6 90.52s2.33.4 2.1-1.72a3.24 3.24 0 0 0-.11-.56 5.53 5.53 0 0 1-.14-1.93 5.36 5.36 0 0 1 .1-.7 9.63 9.63 0 0 1 1.1-2.89l-5.88-2.44a12 12 0 0 1 .82 1.61c.32.78.54 1.65.24 2.1a.69.69 0 0 1-.4.27 1.06 1.06 0 0 1-.45 0h-.5c-1.76 0-1.36 1-1.36 1-.73 2.73 4.48 5.26 4.48 5.26z"/><path d="M616.4 84.28l4 2a5.36 5.36 0 0 1 .1-.7l-3.74-1.6a.69.69 0 0 1-.36.3z"/><use xlink:href="#N"/><use xlink:href="#N" class="B"/></g><path d="M618.17 89.9s2.33.4 2.1-1.7a3.07 3.07 0 0 0-.11-.56 5.59 5.59 0 0 1-.14-1.94 5.21 5.21 0 0 1 .1-.69 8.17 8.17 0 0 1 .64-2 8.39 8.39 0 0 1 .46-.9l-5.88-2.45a12 12 0 0 1 .8 1.63c.32.8.54 1.65.24 2.1a.72.72 0 0 1-.4.26 1.23 1.23 0 0 1-.45 0h-.5c-1.76 0-1.36 1-1.36 1-.7 2.73 4.5 5.25 4.5 5.25z" class="C"/><path d="M616 83.66l4 2a5.21 5.21 0 0 1 .1-.69l-3.74-1.6a.72.72 0 0 1-.36.29z" class="D"/><use xlink:href="#O" class="C"/><use xlink:href="#O" class="B"/><path d="M595.1 117.28a12.41 12.41 0 0 1 .91-1.56c.48-.7 1.07-1.37 1.6-1.37a.63.63 0 0 1 .45.18 1.3 1.3 0 0 1 .28.35l.26.44c1 1.46 1.64.55 1.64.55 2.58-.9 1.8-6.63 1.8-6.63s-1-2.15-2.6-.8a3.68 3.68 0 0 0-.41.39 6.39 6.39 0 0 1-2.16 1.51 9 9 0 0 1-2 .57 6.36 6.36 0 0 1-1 .11z" class="C"/><path d="M597.6 114.35a.63.63 0 0 1 .45.18l-.56-4.5a5.25 5.25 0 0 1-.63.31l.74 4z" class="D"/><use xlink:href="#P" class="C"/><use xlink:href="#P" class="B"/><path d="M592.96 125.7a19.55 19.55 0 0 0 3-10c.48-.7 1.07-1.37 1.6-1.37a.63.63 0 0 1 .45.18 1.3 1.3 0 0 1 .28.35l.26.44c1 1.46 1.64.55 1.64.55 2.58-.9 1.8-6.63 1.8-6.63s-1-2.15-2.6-.8a3.68 3.68 0 0 0-.41.39 6.39 6.39 0 0 1-2.16 1.51 9 9 0 0 1-2 .57 13.44 13.44 0 0 0-1.85-2.78 22.81 22.81 0 0 0-8.9-5.87c1.4 8.87 4 18.2 8.88 23.45zm14.04 3.07a17.36 17.36 0 0 0 2.15-.48 18.83 18.83 0 0 0 1.91-.66l.4-.17 1.6-.76 1.22-.65c7.6-4.4 15-13.22 18.3-22.18a29.11 29.11 0 0 0 1.79-7.62 20.49 20.49 0 0 0-.06-4.15 29.29 29.29 0 0 0-3.72-11.21 21.35 21.35 0 0 0-.66-1.06c-5-7.72-13.4-12.38-22.35-11.44 1.94 5.6 4.7 10.4 8.6 12.88.32.8.54 1.65.24 2.1a.72.72 0 0 1-.4.26 1.23 1.23 0 0 1-.45 0h-.5c-1.76 0-1.36 1-1.36 1-.7 2.65 4.5 5.18 4.5 5.18s2.33.4 2.1-1.7a3.07 3.07 0 0 0-.11-.56 5.59 5.59 0 0 1-.14-1.94 5.21 5.21 0 0 1 .1-.69 8.17 8.17 0 0 1 .64-2 12.85 12.85 0 0 0 3.34 0 17.74 17.74 0 0 0 4.56-1.24 14.39 14.39 0 0 0-.58 1 19.62 19.62 0 0 0-3 10c-.46.7-1 1.38-1.6 1.38a.66.66 0 0 1-.44-.17 1.38 1.38 0 0 1-.29-.36l-.26-.43c-1-1.44-1.64-.54-1.64-.54-2.57.94-1.74 6.65-1.74 6.65s1 2.14 2.6.76a2.51 2.51 0 0 0 .4-.4 5.59 5.59 0 0 1 1.52-1.2 5.33 5.33 0 0 1 .63-.32 8.57 8.57 0 0 1 2-.59 12.74 12.74 0 0 0 1.87 2.77l.4.43-.14.13a79 79 0 0 0-8.87 9.44c-.8 1-1.6 2.1-2.28 3.18q-.74 1.13-1.38 2.25a19.67 19.67 0 0 0-2.94 10c-.46.7-1 1.37-1.6 1.38a.71.71 0 0 1-.45-.17 1.36 1.36 0 0 1-.28-.36c-.1-.16-.18-.3-.27-.43-1-1.44-1.63-.54-1.63-.54-1.14.5-1.58 1.86-1.75 3.23z" class="B"/><g class="B"><use xlink:href="#Q"/><path d="M583.46 97.4l.44 3.15c4.55 1.38 8.9 1.82 12.56.66.8.26 1.6.64 1.76 1.16a.63.63 0 0 1 0 .48 1.19 1.19 0 0 1-.27.37 4.94 4.94 0 0 0-.33.37c-1.12 1.37-.07 1.72-.07 1.72 1.6 2.22 6.86-.16 6.86-.16s1.8-1.54 0-2.7a4.27 4.27 0 0 0-.49-.28 5.58 5.58 0 0 1-1.59-1.13 7.67 7.67 0 0 1-.47-.51 9.36 9.36 0 0 1-1.12-1.77 12.15 12.15 0 0 0 2.15-2.56c4.23-6.6 4.15-18.23.8-28.3-13 1.84-22.02 15-20.23 29.5zm12.14 29.06a11.4 11.4 0 0 0 4.61 1.73 7.28 7.28 0 0 1 .47-.9l-5.9-2.4a13.86 13.86 0 0 1 .82 1.57z"/><path d="M597.6 135.08s2.34.4 2.1-1.7a3 3 0 0 0-.1-.56 5.61 5.61 0 0 1-.14-1.94 5 5 0 0 1 .09-.69 9 9 0 0 1 .64-2 7.28 7.28 0 0 1 .47-.9l-5.9-2.4a13.86 13.86 0 0 1 .8 1.62c.3.8.53 1.66.23 2.1a.66.66 0 0 1-.39.27 1.32 1.32 0 0 1-.46 0 4.53 4.53 0 0 0-.5 0c-1.77 0-1.37 1-1.37 1-.68 2.67 4.5 5.2 4.5 5.2z"/><path d="M595.42 128.9l4 2q0-.36.1-.7l-3.74-1.6a.67.67 0 0 1-.35.29z"/><use xlink:href="#R"/><use xlink:href="#R" class="B"/><use xlink:href="#Q" class="B"/></g><g class="C"><path d="M584.9 98.2c1.8 14.7 6.88 32.44 20.07 30.8s29.52-22 27.7-36.7-14-25.28-27.18-23.65-22.42 14.86-20.6 29.55z"/><path d="M599.03 135.9s2.33.4 2.1-1.7a4.44 4.44 0 0 0-.1-.56 5.37 5.37 0 0 1-.15-1.94c0-.23.06-.47.1-.7a9 9 0 0 1 1.11-2.89l-5.88-2.45s1.66 2.8 1 3.74a.69.69 0 0 1-.4.27 1.54 1.54 0 0 1-.45 0h-.5c-1.77 0-1.37 1-1.37 1-.66 2.72 4.53 5.23 4.53 5.23z"/></g><path d="M596.85 129.67l4 2c0-.23.06-.47.1-.7l-3.74-1.6a.69.69 0 0 1-.36.29z" class="D"/><use xlink:href="#S" class="C"/><use xlink:href="#S" class="B"/><path d="M616.6 73.9s7 1.48 7.38 6.6a5.74 5.74 0 0 0-2.47-.67 3.64 3.64 0 0 1-1.67-.24 9.57 9.57 0 0 0-3.24-5.69z" fill="#fff" class="B"/><g fill="none" stroke="#444053" stroke-miterlimit="10"><path d="M599.4 131a4.26 4.26 0 0 1 3.79 5.24c-.88 2.95-4.5 3.88-6.86 5.85s-3.5 5.12-3.78 8.2a20.08 20.08 0 0 0 5.77 15.88c2.12 2.1 4.68 3.7 6.77 5.8a34.58 34.58 0 0 1 5.85 8.92 20.88 20.88 0 0 1 2.59 7.5c.35 4.2-1.77 8.24-4.3 11.62s-5.56 6.44-7.52 10.18a21.39 21.39 0 0 0-1.23 16.77 2.17 2.17 0 0 0 .71 1.12.79.79 0 0 0 1.16-.25"/><path d="M611.68 130.25a2 2 0 0 1 .09 2.54 3.09 3.09 0 0 1-2.44 1.13c-1.13 0-2.4-.35-3.32.3a2.87 2.87 0 0 0-1 2.17 11.07 11.07 0 0 1-.25 2.45 4.88 4.88 0 0 1-1.08 1.76 5.41 5.41 0 0 1-2 1.46c-1.67.65-3.6.06-5.3.6-2.25.7-3.46 3.14-4.14 5.4a15.55 15.55 0 0 0-.49 8.38 29 29 0 0 0 2.27 5.14 11.63 11.63 0 0 1 1.48 5.36 4.92 4.92 0 0 1-2.82 4.5m16.18 23.36c-2.7 3.58-3.7 9.3-8.1 10.17-2.27.45-4.52-.72-6.55-1.84-4.73-2.64-9.6-5.3-15-6.17s-11.36.38-14.9 4.5c-2.4 2.82-3.4 6.6-5.52 9.64a19.78 19.78 0 0 1-11.2 7.36 45.83 45.83 0 0 1-13.58 1.16c-1.7-.05-3.53-.18-4.8-1.3a11.66 11.66 0 0 1-2-3.05c-2.17-3.64-6.46-5.64-10.7-5.9s-8.4 1-12.32 2.6c-2 .82-4 1.76-6.14 1.55-3-.3-5.2-2.72-7.06-5.05a100 100 0 0 1-12.13-19.74"/></g><path d="M497.9 603.42l1.77-7.3a15.3 15.3 0 0 1 2-7.41l.05-1.07.3-7.9a26.56 26.56 0 0 0-1.83-4.21c-1.33-2.53.45-11.57.45-11.57s5.76-12.6 4.8-20.78 12.2-35.68 12.2-35.68a35.38 35.38 0 0 0-.83-8 6.81 6.81 0 0 1-.09-1.68v-.14c.4-5.35 5-15.24 5-15.24l.17-19.16s-2.27-11.4 2.73-26.4c1.74-5.23 2.9-9.42 3.64-12.66a30.55 30.55 0 0 0 .24-1.06L512.58 420s6.1-21.83 9.82-25.55 7-15.74 7-15.74 2.45-15.5-.37-20.15-2.9-12.57-2.9-12.57-6.64-5.22-7.4-7.46-2-7.25-1.9-9.87 1-4.93.8-6.3 2.25-6.54 1.2-9.06a7 7 0 0 1-.36-2.41v-.07a33.5 33.5 0 0 1 .85-6.44 18.24 18.24 0 0 1 6.9-3.35l.17-.6.44-1.53a8.14 8.14 0 0 1 .69-.38v-.56l.15-2.24-.88-5.07c-1.76-8.82 10-9.68 10-9.68a6.14 6.14 0 0 1 3.42-2.77c2.38-.74-.12 13.17-1.25 14-.85.64-3.57 4.93-4.88 7h0l-.22.35a4.89 4.89 0 0 1 .52.58l-.56 3-.1.46a12.63 12.63 0 0 1 1.74 3.25s-2.23 2.26-1.9 4.9a15.46 15.46 0 0 1-.94 6c.13-.13 1.7-1.7 3.18-1.25s5.63 1.87 5.63 1.87 3.1.68 2.8 1.35 2 3.8 2 3.8L555 316c.1-.24.2-.47.27-.72a19.67 19.67 0 0 0 .87-3.46 19.17 19.17 0 0 1-2.66-1 5.78 5.78 0 0 1-2.27-1.58 9 9 0 0 1-1.21-3.68c-.58-2.48-1.92-4.7-2.86-7.08a22.69 22.69 0 0 1-1.2-12.57 8.26 8.26 0 0 1 1.44-3.61c1.44-1.84 4-2.5 5.83-3.94s3.13-3.7 5.28-4.75c1.95-.95 4.28-.74 6.4-.3a34.3 34.3 0 0 1 11.76 4.79c1.2.77 2.5 1.67 3.93 1.46a5.29 5.29 0 0 0 3-2v-.1l.1-.1a14.85 14.85 0 0 1 1.07 6.35c0 .33 0 .67-.08 1v.35a1.43 1.43 0 0 0 0 .29h0a1.73 1.73 0 0 0 0 .45 3.23 3.23 0 0 0 .74 1.17 6 6 0 0 1 .65 1c0-.12-.06-.23-.1-.35a5 5 0 0 1 .77 2.69 2.68 2.68 0 0 1-.7 1.87 8.69 8.69 0 0 1-1.42 1.05 16 16 0 0 1-8.32 16.39l-.3.7a20.11 20.11 0 0 0-1.88 9.12c0 .22 0 .44.08.67a4.39 4.39 0 0 1 .28.36h0s13.88.67 17.27-2.17 8 7.56 8 7.56 4.95 1.15 6 .23 6.84.12 6.84.12a12.53 12.53 0 0 1 8.8-2.83 25.71 25.71 0 0 1 6.51-3.3h.16a7.19 7.19 0 0 1 3.14-.28s7.05-5.38 9.16-8.33 12-13.84 12.08-13.88l.05-.55.17-1.63a6.09 6.09 0 0 0 .85.11c.06-.16.13-.35.22-.56a29.77 29.77 0 0 1 2.19-4.55s.08-2.07-.5-2.6.57-8.1.57-8.1 6.7-14.15 11.8-3.2c0 0 10.15 7.36 1.1 15.12 0 0-3.55 1.55-4.1 2.87-.36.86-1.64 3.25-2.5 4.83-.15.26-.28.5-.4.7l.1.1-.18 1.34-.08.52c1.62 1 2.7 2 2.4 2.67a15.36 15.36 0 0 0-1.14 3.68c0 0-12.68 14.68-14.5 21.1 0 0-33.2 18-43.9 19l1.48 9.7s.34 5.8.12 7.87.84 11.5.84 11.5 1.32 13.84 2.8 15.83.9 10.24.9 10.24a69.1 69.1 0 0 0 1.69 11.79c1.36 5.3 0 11.73 0 11.73s4.93 12.6-7.7 3.7c0 0-6.35-.64-13.66-1.17v.74c0 .94 0 2-.08 3-.17 7.1-.5 16.9-1.1 24.3-1.08 13.06-6.06 38.8-6.06 38.8l-.5 13a16.94 16.94 0 0 1 .23 3.73 24.16 24.16 0 0 1-4 12.89l-1.53 8.6s-2.56 5.62-2.74 9a4.28 4.28 0 0 0 .07.83 6.08 6.08 0 0 1 .06 1.34c0 3.94-2.75 13.28-2.75 13.28s-.5 9.5-2 10c-1.23.43 1.42 5.54 2.2 7a2.61 2.61 0 0 0 .06-.27l.17.3a6.73 6.73 0 0 1 .35 2.42 3.46 3.46 0 0 1-1.71 3.28c-2.77 1.54-4.27 2.87-2 3.5.87.25 1.8.34 2.5.63 0-.1.1-.22.13-.32a1.52 1.52 0 0 1 .87 1.71 7 7 0 0 1-1 3.19 34.14 34.14 0 0 1-4.12 6.87l-1.1-.16a5.33 5.33 0 0 0 .59 1.2 4.63 4.63 0 0 0 1.55 1.49 5 5 0 0 0 1.92.74 5.49 5.49 0 0 1 4 2.12c1.34 1.88 2.14 4.42-.75 6.5l-10.3 3.12s-17.6 1.6-16.52-2.3 1.78-7.3 1.78-7.3A15.54 15.54 0 0 1 551 596a7.2 7.2 0 0 1 .66-1l-.62-.1s-.94-8.72-2.6-10.44c-.38-.4-.46-.7-.35-.92-.16-.48.3-.74.87-.87 0 .1.08.23.1.34a9.1 9.1 0 0 1 1.71-.12s.75-4.52-1-6.25a1.75 1.75 0 0 1-.31-1.36 7.42 7.42 0 0 1 .27-1.85l.06.1c1.1-4.1 4.5-10.52 4.5-10.52s.3-4.13-.77-5.82 1-22.45 1-22.45 0-10.07 1.42-14.7-1.18-10.25-1.18-10.25v-.3a.22.22 0 0 0 0-.07l.23-1.58v.1c.4-2.65 1.12-7.45 1.6-9.67.7-3.14.57-18.32.57-18.32l-2.32-6.58-5 11-5.38 14.63s-2.52 3.05-2.7 6.23v.47a8.26 8.26 0 0 1 0 1 8.84 8.84 0 0 1-1.68 5.25s-1.55 7-3.6 8.7-2.2 5.15-2.2 5.15-2.82 10.1-4 11.85c-1 1.47-1.23 5.62-1.27 6.9h0v.37s-.48 3.63-.58 6.7v1a11.11 11.11 0 0 0 .2 2.49c0 0 0 .1 0 .14v-.5a25.88 25.88 0 0 1 .49 6.38c-.08 3.66-.8 8-3.12 10.44-4 4.26-6.4 3.62-6.4 3.62s1.64 5.58 3.87 6.77a1 1 0 0 1 .24.16c0-.1 0-.2.07-.32a2.69 2.69 0 0 1 .59 2.08c.07 2.43-1.6 6.3-3.14 8.06a4.51 4.51 0 0 1-2 1.05l.35.24a9.66 9.66 0 0 0 .77.4 3.66 3.66 0 0 0 1.15.34 5.43 5.43 0 0 1 4 2.12c1.35 1.88 2.15 4.42-.74 6.5l-10.32 3.12s-17.6 1.6-16.53-2.28z" transform="translate(-50.4 -87.11)" fill="url(#B)"/><path d="M514.12 525.4l10-3.13c2.8-2.1 2-4.63.73-6.52a5.22 5.22 0 0 0-3.82-2.11 4.73 4.73 0 0 1-1.86-.74 4.45 4.45 0 0 1-1.5-1.49 7.27 7.27 0 0 1-1-3.85s-10.7-3.58-13.78-.53a8.15 8.15 0 0 0-1.38 1.87 16 16 0 0 0-1.65 6.92s-.68 3.4-1.72 7.3 15.98 2.27 15.98 2.27zm-48.02-6.72l10-3.13c2.8-2.1 2-4.63.73-6.5a5.18 5.18 0 0 0-3.83-2.11 3.91 3.91 0 0 1-1.11-.35 5 5 0 0 1-.74-.4c-2.7-1.62-2.54-5.3-2.54-5.3s-10.7-3.58-13.77-.53a7.9 7.9 0 0 0-1.09 1.37 15.63 15.63 0 0 0-1.94 7.42s-.7 3.42-1.73 7.3 16.02 2.22 16.02 2.22z" fill="#2d293d"/><path d="M502.9 507.02a8.15 8.15 0 0 0-1.38 1.87h0l16.14 2.5a7.27 7.27 0 0 1-1-3.85s-10.68-3.57-13.76-.52zm-49.12-5.34l-.12 3c2.36 4.26 14.6 3.82 18.2 1.87a5 5 0 0 1-.74-.4c-2.7-1.6-2.53-5.26-2.53-5.26s-10.7-3.58-13.77-.53a7.9 7.9 0 0 0-1.05 1.32z" class="B"/><path d="M452.35 488.52a26.62 26.62 0 0 1 1.77 4.21l-.42 10.88c2.58 4.65 17 3.7 19 1.28s4.34-8.8 2.18-10-3.74-6.77-3.74-6.77 2.32.64 6.2-3.62 3.16-14.1 2.56-16.46.4-10.2.4-10.2.07-5.52 1.24-7.26 3.9-11.86 3.9-11.86.13-3.44 2.13-5.16 3.5-8.7 3.5-8.7a9 9 0 0 0 1.61-5.87c-.28-3.46 2.62-7.07 2.62-7.07l5.25-14.7 4.84-11 2.2 6.65s.1 15.18-.57 18.33-1.82 11.52-1.82 11.52 2.54 5.6 1.12 10.25-1.4 14.7-1.4 14.7-2 20.76-1 22.45.74 5.82.74 5.82-6.12 11.9-4.4 13.63 1 6.25 1 6.25-3.85-.15-2.26 1.57 2.57 10.4 2.57 10.4l16.58 2.57a34.8 34.8 0 0 0 4-6.88c2.4-5-.23-4.57-2.43-5.2s-.74-2 1.94-3.5 1.3-5.33 1.3-5.33-3.74-6.9-2.34-7.4 1.9-10 1.9-10 3.18-11.2 2.6-14.25 2.6-10.25 2.6-10.25l1.3-8.64a23.85 23.85 0 0 0 3.66-16.27l.52-13.36s4.85-25.75 5.9-38.82c.67-8.36 1-19.8 1.17-26.95l.12-6.66-59.27-8.5a48.54 48.54 0 0 1-1.42 8.8c-.73 3.25-1.85 7.44-3.54 12.67-4.86 15-2.67 26.4-2.67 26.4l-.2 19.16s-5.73 12.6-4.8 17.06a36.37 36.37 0 0 1 .8 8s-12.8 27.5-11.86 35.68-4.66 20.8-4.66 20.8-1.78 9.1-.5 11.62z" class="E"/><path d="M489.14 418.07l-18-3.1s9.84 10.86 18 3.1z" class="F"/><path d="M474.42 397.36s-.87 6.38 3 8.94c-.04 0-7.02-1.4-3-8.94zM476.3 377s14.67 13.05 20.2 12.23S476.3 377 476.3 377zm35.07 47.78s11.4 3.06 11.56 7.7-11.56-7.7-11.56-7.7z" class="B"/><path d="M506.6 482.13s16.13 3.65 11.44 5.54a78.41 78.41 0 0 1-12.3 3.22c0 0-5.25.1.86-8.76z" class="F"/><path d="M521.23 491.08a3.2 3.2 0 0 0 1.57-2.3l.16.3s1.37 3.77-1.3 5.32l-.87.53-1.5-.34c-2.2-.64-.7-1.96 1.94-3.5zm-20.9-1.9c-.43-.43-.37-1.5-.05-2.84a7.65 7.65 0 0 1 .77 4 3.25 3.25 0 0 0-.72-1.16zm5.14-68.43a18.48 18.48 0 0 1 .9 5.1 20.71 20.71 0 0 0-1.12-3.53l.22-1.57zm-36.94-8.67a6.45 6.45 0 0 1-.09-1.51l.34 2.84-.25-1.33zm35.45 57.65a8.89 8.89 0 0 1-.3-3.08 10.35 10.35 0 0 1 .65 3.9 3.89 3.89 0 0 0-.35-.82zm-4.38 25.85a53.63 53.63 0 0 1 1.58 8.53l16.58 2.57a34.8 34.8 0 0 0 4-6.88l.52-1.2c1 .5 1.33 1.55-.1 4.52a34.74 34.74 0 0 1-4 6.89l-16.58-2.57s-.9-8.73-2.5-10.45c-.82-.84-.28-1.23.5-1.4zm22.92-23.9s-.5 9.5-1.9 10h0c-.63-1.6-1-3.1-.4-3.33 1.4-.5 1.9-10 1.9-10s3.2-11.2 2.62-14.25 2.6-10.24 2.6-10.24l1.3-8.64a23.88 23.88 0 0 0 3.66-16.28l.5-13.36s4.86-25.75 5.9-38.8c.68-8.37 1-19.8 1.18-26.95 0-1.3.05-2.44.06-3.4l.48.07s0 2.66-.12 6.66c-.16 7.14-.5 18.6-1.17 26.95-1.06 13.07-5.9 38.82-5.9 38.82l-.52 13.36a23.85 23.85 0 0 1-3.66 16.27l-1.3 8.64s-3.17 7.2-2.6 10.25-2.63 14.25-2.63 14.25zm-50.24 29.52a16.17 16.17 0 0 0 2.89-6.45c1.64 1.6-.55 7.5-2.47 9.77s-16.4 3.37-19-1.28l.1-2.62c3.6 3.83 16.56 2.85 18.48.58zm-20.34-16.38a27.89 27.89 0 0 1 1.77 4.21l-.08 1.93-1.27-2.8a8.23 8.23 0 0 1-.47-3.43zm20 2.95a26.05 26.05 0 0 1-1.23-3.33s2.32.64 6.2-3.62c2.84-3.1 3.22-9.15 3-13.13.6 2.37 1.33 12.2-2.56 16.46-2.56 2.8-4.42 3.47-5.4 3.62zm8.35-30.27a72.28 72.28 0 0 0-.59 8.15l-.24-1.3c-.6-2.36.4-10.2.4-10.2s.08-5.5 1.25-7.26 3.9-11.85 3.9-11.85.13-3.45 2.13-5.16 3.5-8.7 3.5-8.7a9.07 9.07 0 0 0 1.6-5.87c-.28-3.46 2.62-7.07 2.62-7.07l5.26-14.7 4.83-11 2.23 6.57v2.1l-1.8-5.34-4.8 11-5.25 14.7s-2.9 3.6-2.62 7.07a9 9 0 0 1-1.61 5.87s-1.5 7-3.5 8.7-2.13 5.16-2.13 5.16-2.74 10.1-3.9 11.85-1.27 7.27-1.27 7.27z" class="F"/><path d="M478.5 203.62l.84 5.07-.14 2.24-.1 1.65 5.72.8.7-1.17c1.28-2.1 3.9-6.4 4.74-7 1.1-.86 3.53-14.77 1.22-14a6 6 0 0 0-3.31 2.78s-11.35.8-9.65 9.62z" class="I"/><path d="M479.08 212.58l5.72.8.7-1.17a5.05 5.05 0 0 0-6.3-1.29z" class="B"/><path d="M477.52 215.24l7.5 2 .2-1.12.54-3a5.22 5.22 0 0 0-7.3-1.29l-.43 1.54z" fill="#dce6f2"/><path d="M600.72 208.9l7.93 4.65.8-1.5 2.42-4.83c.53-1.32 4-2.88 4-2.88 8.78-7.77-1-15.1-1-15.1-4.93-10.95-11.44 3.2-11.44 3.2s-1.1 7.55-.55 8.1.5 2.6.5 2.6a30.15 30.15 0 0 0-2.13 4.56c-.36.73-.5 1.2-.5 1.2z" class="I"/><path d="M600.72 208.9l7.93 4.65.8-1.5c-1.1-1-5-4.44-6.36-4.34a9.49 9.49 0 0 1-1.92 0l-.44 1.2z" class="B"/><path d="M599.8 211.3l8.92 4.83.26-2 .18-1.34s-5.1-4.72-6.66-4.6a8.21 8.21 0 0 1-2.37-.1l-.17 1.64z" fill="#dce6f2"/><path d="M499.25 237.9s39.47 6 32.15 3.3c-5.1-1.88-7-5.23-7.3-8.9a20.73 20.73 0 0 1 1.83-9.11 39.25 39.25 0 0 1 3.82-7c0 0-29.66-17.84-24.18-2.45a24.36 24.36 0 0 1 1.44 7.25 20.27 20.27 0 0 1-1.06 7.23 21.73 21.73 0 0 1-6.69 9.67z" class="I"/><path d="M505.6 213.7a24.36 24.36 0 0 1 1.44 7.25c2.76 2.5 5.9 2.47 9.9 2.62 3.1.12 6.5 1 9-.4a39.25 39.25 0 0 1 3.82-7c0 0-29.7-17.87-24.17-2.48z" class="B"/><circle cx="518.04" cy="208.24" r="16.4" class="I"/><path d="M499.25 237.9s39.47 6 32.15 3.3c-5.1-1.88-7-5.23-7.3-8.9-1.9-2.2-5.8-3.9-8.3-4.83a11.91 11.91 0 0 0-7.18-.39 10.12 10.12 0 0 0-2.66 1.11 21.73 21.73 0 0 1-6.69 9.7zm-21.73-22.66l7.5 2 .2-1.12a6.7 6.7 0 0 0-7.19-2.77zm122.28-3.94l8.92 4.83.26-2a67.15 67.15 0 0 0-9-4.41zM479.72 337.16c15.26 3 37 7 40.5 6.1 2.9-.77 12.1-.32 20.08.26l.12-6.66-59.27-8.5a48.54 48.54 0 0 1-1.42 8.8z" class="B"/><path d="M464.6 332.97s50.22 10.62 55.7 9.18 33.27 1.42 33.27 1.42c12.2 8.88 7.46-3.72 7.46-3.72s1.35-6.43 0-11.72a71.88 71.88 0 0 1-1.61-11.79c0 0 .6-8.25-.85-10.24s-2.7-15.83-2.7-15.83-1-9.42-.8-11.48-.1-7.87-.1-7.87l-1.42-9.7c10.38-1 42.53-19.06 42.53-19.06 1.77-6.4 14.06-21.12 14.06-21.12a15.61 15.61 0 0 1 1.1-3.68c.92-2.17-11.3-7-11.3-7s-9.67 10.94-11.7 13.9-8.88 8.35-8.88 8.35a6.75 6.75 0 0 0-3 .28h-.16a24.55 24.55 0 0 0-6.31 3.31 12 12 0 0 0-8.52 2.84s-5.62-1-6.62-.12-5.78-.22-5.78-.22-4.43-10.38-7.7-7.54-16.73 2.2-16.73 2.2c-1.7-2.45-6-4.33-8.68-5.3a11.91 11.91 0 0 0-7.18-.4 9.16 9.16 0 0 0-2.89 1.27l-8.46 7.67s-2.23-3.12-1.93-3.8-2.7-1.35-2.7-1.35l-5.45-1.86c-1.45-.47-2.95 1.1-3.08 1.25a16.08 16.08 0 0 0 .92-6c-.3-2.63 1.84-4.9 1.84-4.9-4.36-12-15.63-2.54-15.63-2.54s-1.5 6.43-.48 8.95-1.4 7.67-1.18 9.06-.7 3.7-.8 6.32 1.1 7.63 1.83 9.86 7.16 7.45 7.16 7.45.1 7.87 2.83 12.53.33 20.15.33 20.15-3.22 12-6.82 15.74-9.55 25.54-9.55 25.54z" class="E"/><path d="M541.73 245.17s1.7-4.5 3.08-4.85a31.9 31.9 0 0 0 4.07-1.64l-.82-1.73s-5.23 1.22-6.12 2.7-.2 5.5-.2 5.5zm28.07-9c.23 1.38 12.44 3.1 12.44 3.1l-6-6.46h-.15a24.55 24.55 0 0 0-6.29 3.36zm-29.58 46.32c.14-.15-32.42 37.86-55.66 14.28.04 0 37.9 6.63 55.66-14.28zm8.48-19.67a59.93 59.93 0 0 1-7.68 12.06 48.44 48.44 0 0 1-11.71 10.46s18.98-19.98 19.4-22.52zm6.9-21.36s-3.62 13.26-11.78 17.5zm4.7 1.53c.1-.25 2.35 10.7-10.94 16.18 0 0 5.62-1.67 10.94-16.18zm-80.8-12.1c.2 0-6.6 4-8.5 5.88 0 .02 4.58-6.3 8.5-5.88z" class="B"/><path d="M521.9 223.28a3.43 3.43 0 0 1-1.36 2.16 3.32 3.32 0 0 1-1.56.29c-5 .12-10.22.14-14.77-2a5.58 5.58 0 0 1-2.19-1.58 9.16 9.16 0 0 1-1.17-3.67c-.56-2.48-1.86-4.7-2.76-7.08a23.4 23.4 0 0 1-1.14-12.51 8.47 8.47 0 0 1 1.39-3.62c1.4-1.84 3.84-2.5 5.65-3.95s3-3.7 5.12-4.75c1.9-1 4.14-.75 6.2-.3a32.39 32.39 0 0 1 11.38 4.78c1.16.77 2.43 1.66 3.8 1.46a5.3 5.3 0 0 0 2.91-2.07 15.07 15.07 0 0 1 1 7.19 3.26 3.26 0 0 0 0 1.08 3.36 3.36 0 0 0 .72 1.16c1.18 1.48 1.86 3.78.6 5.17-.55.62-1.38.93-1.92 1.55-1 1.1-.73 2.78-.76 4.26a2.19 2.19 0 0 1-.42 1.44 2.13 2.13 0 0 1-2 .4 5.68 5.68 0 0 0-2.15-.29 3.65 3.65 0 0 0-1.93 1.37c-2.5 2.83-3.53 6.02-4.64 9.52z" class="E"/><g class="B"><path d="M501.5 220.9a5.55 5.55 0 0 0 2.2 1.58c4.55 2.1 9.76 2.08 14.77 2a3.58 3.58 0 0 0 1.56-.29 3.43 3.43 0 0 0 1.36-2.17c1.1-3.5 2.13-6.68 4.55-9.53a3.61 3.61 0 0 1 1.93-1.37 5.68 5.68 0 0 1 2.15.29 2.11 2.11 0 0 0 2-.41 2.19 2.19 0 0 0 .42-1.44c0-1.47-.2-3.14.75-4.25.54-.63 1.37-.94 1.93-1.55a3.21 3.21 0 0 0 .44-3.27c.82 1.42 1.14 3.22.07 4.4-.56.6-1.4.93-1.93 1.55-1 1.1-.72 2.78-.75 4.26a2.19 2.19 0 0 1-.42 1.44 2.13 2.13 0 0 1-2 .4 5.73 5.73 0 0 0-2.15-.29 3.61 3.61 0 0 0-1.93 1.37c-2.42 2.85-3.45 6-4.55 9.54a3.43 3.43 0 0 1-1.36 2.16 3.32 3.32 0 0 1-1.56.29c-5 .12-10.22.14-14.77-2a5.55 5.55 0 0 1-2.2-1.58 4.46 4.46 0 0 1-.66-1.35zm32.83-22.66a2.37 2.37 0 0 1-.47-.85 3 3 0 0 1 0-1.07 15.25 15.25 0 0 0-.54-6l.1-.1a15.19 15.19 0 0 1 .95 7.19 5.29 5.29 0 0 0-.03.83z"/><path d="M524.45 233.33s-20.6 1.92-22.3-1.23m-17.2-8.78s-11.38-.42-14 3.75"/></g></svg>