<svg xmlns="http://www.w3.org/2000/svg" xmlns:xlink="http://www.w3.org/1999/xlink" width="705.281" height="719.476" xmlns:v="https://vecta.io/nano"><path d="M655.726 300.428C614.1 136.742 470.265 18.584 301.435 13.844 212.18 11.34 118.258 40.94 49.877 144.53c-122.24 185.175 7.512 313.137 97.97 373.94 43.703 29.435 83.082 64.83 116.996 105.155 61.102 72.508 178.65 162.61 318.643 21.434 101.467-102.324 99.967-235.6 72.24-344.632z" fill="#f2f2f2"/><use xlink:href="#B" fill="#ffb8b8"/><use xlink:href="#B" opacity=".1"/><path d="M36.755 119.273c-17.358 0-27.92-.988-28.15-1.01l.194-2c.51.05 51.892 4.85 115.4-6.998C182.745 98.353 263.876 70.644 317.91.656l.506-.656.74.376c.697.354 70.647 35.77 152.745 61.444 48.182 15.07 91.054 23.884 127.425 26.2 45.332 2.888 80.587-4.37 104.798-21.568l1.158 1.63c-24.598 17.472-60.3 24.85-106.096 21.933-36.533-2.328-79.567-11.174-127.907-26.293-77.715-24.308-144.56-57.322-152.3-61.19-23.974 30.842-55.115 56.118-92.568 75.128-30.152 15.305-64.44 26.606-101.9 33.59-28.95 5.325-58.32 8-87.755 8.023z" fill="#2f2e41"/><path d="M60.902 118.658l31.4-2.583-12.6 42.192-18.8-39.6zm66.152-7.89l10.648 30.5 12.1-35.5-22.758 5zm94.774-33.2l29.874 21.7-5.838-32.383-24.036 10.683zm150.444-52.832l3.43 42.532 19.084-31.03-22.514-11.502zM585.415 88.86l22.287 46.406 18.97-46.406h-41.256zm-133.64-31.487l-.074 45.894 26.924-37.285-26.85-8.6z" fill="#6c63ff"/><path fill="#2f2e41" d="M49.702 717.267h648v2h-648z"/><circle cx="336.945" cy="157.819" r="44.757" fill="#ff6584"/><path d="M413.55 259.462l11.015 68.092 45.56 38.05s31.542 18.024 16.522 29.54-32.293-19.777-32.293-19.777-45.56-16.522-51.07-38.05-18.964-59.344-18.964-59.344zM255.836 470.246s6.5 62.084 5.007 66.6 3.004 75.602 3.004 75.602l28.538-6.5s4.256-37.3.75-73.85c0 0 10.514-34.547.5-54.574s-37.8-7.26-37.8-7.26zm88.37 23.782s14.52 43.058 23.532 52.07c0 0 13.268 63.836 26.786 66.34s25.534-11.515 25.534-11.515-15.52-57.578-25.034-66.6l-11.516-47.063z" fill="#ffb8b8"/><path d="M295.9 599.92h-35.047l4.005 41.556s2.503 38.05-1.502 44.06-7.5 34.05 6.5 33.05 20.528-8.016 20.528-11.02 1.502-37.55 5.007-43.56 3.505-19.526-2.503-21.53 3.004-42.557 3.004-42.557zm91.113 8.512l20.027 35.548s-3.505 10.514 1 18.525 5.507 23.03 5.507 29.04 7 29.042 22.53 27.04 9.012-21.03 9.012-21.03L433.073 649.5l-13.018-54.073z" fill="#2f2e41"/><g fill="#ffb8b8"><path d="M274.862 276.986l-5.508 35.047-36.55 80.108 34.547 8.51 23.53-119.66-16.02-4.005z"/><circle cx="336.695" cy="179.104" r="33.045"/></g><g fill="#2f2e41"><path d="M392.52 233.928l-18.68-8.218s-27.884 13.725-60.928-1.796l-26.035 5.007s0 43.56-4.506 47.063-10.013 18.024-7.01 26.536 8.01 32.043-1 36.55-39.053 18.525-47.564 34.547-58.078 4.506-60.08 25.034 32.043 44.06 20.528 65.588-17.023 26.035 16.522 28.538 67.1-23.03 95.128-3.004 63.085 27.036 76.603 15.52 30.54-36.05 53.07-35.548 40.555-3.004 37.55-17.524 12.517-7.01-3.004-26.035-60.582-27.537-67.1-46.062-36.05-26.035-36.05-26.035-5.007-7.01 3.004-11.516 29.54-108.646 29.54-108.646z"/><path d="M293.887 233.427l-7-4.506s-33.545 19.026-30.54 29.04 5.507 7 4.506 15.52-5.507 9.012 2.003 11.015 9.513-3.004 9.513 4.005 12.517 5.007 12.517 5.007zm92.625 3.003l6.008-2.503s27.537 20.528 24.533 39.553-16.022-.5-18.024 4.506-8.5 5.007-9.012 13.018 6.008 9.513-.5 11.015S370 267.974 370 267.974z"/></g><g fill="#ff6584"><path d="M305.653 138.05h62.084v35.548h-62.084z"/><circle cx="321.174" cy="111.991" r="14.52"/><circle cx="357.217" cy="112.991" r="14.52"/></g><g fill="#6c63ff"><path d="M680.346 274.885c-26.912 27.15-91.872 48.665-119.022 21.753s-6.208-92.06 20.704-119.21c26.913-27.143 70.733-27.333 97.88-.424s27.343 70.73.438 97.88z"/><path d="M561.366 306.073c-.824-4.836-4.634-8.612-9.476-9.393l9.393-9.476 9.476 9.393z"/></g><g fill="#2f2e41"><path d="M566.04 302.09c-4.807-1.506-8.597-5.232-10.182-10.014l1.9-.62c1.385 4.17 4.7 7.417 8.883 8.728z"/><path d="M469.56 388.237l89.26-90.002 1.42 1.408-89.26 90.002z"/></g><ellipse cx="919.528" cy="315.944" rx="17.513" ry="14.594" transform="matrix(.703985 -.710214 .710214 .703985 -199.55375 656.32409)" fill="#fff" opacity=".4"/><path opacity=".3" d="M98.702 277.267h6v19h-6zm336-126h6v19h-6zm-239 72h6v19h-6zm280 10h6v19h-6zM172.44 285.203l4.694-3.737 11.833 14.866-4.694 3.737zm289 8l4.694-3.737 11.833 14.866-4.694 3.737zM148.854 339.04l5.196 3-9.5 16.454-5.196-3zm305-146l5.196 3-9.5 16.454-5.196-3zm-332-39l5.196 3-9.5 16.454-5.196-3z" fill="#6c63ff"/><defs ><path id="B" d="M321.925 201.384s8.51 19.026-9.012 22.53 20.528 21.028 20.528 21.028l29.54-5.007L378 228.42s-30.04-18.024-26.035-32.043-30.04 5.007-30.04 5.007z"/></defs></svg>