<svg xmlns="http://www.w3.org/2000/svg" width="256" height="175" preserveAspectRatio="xMidYMid" xmlns:v="https://vecta.io/nano"><path d="M96 122l-2-.4c-14.3-2.7-23.3-11.3-27.6-25-2.7-8.5 2.2-14.7 11-15 7.3-.3 12.3 3.8 16.7 8.7 5.7 6.3 11 13 16.5 19.3 8 9.2 17.5 15 30.4 13.2 11.6-1.6 21.7-6.3 30.5-14l4.2-3.2-1-1c-7.4 2.3-15 3-22.6 2.7-11.6-.6-22.7-3-32.7-9.4-9-5.8-15.7-13.7-19-24-2.6-8.4 2.7-14.3 11.4-13 3.5.5 6.4 2 9 4.2l6.3 5.4c10.2 8.2 24.5 8.7 37.4-.2-21.3-.1-35.8-11.8-48.5-26.7l-15-17.4C91.6 15 80.7 5.3 65.8 2 46.7-2.3 28.2.5 10.6 8.6A45 45 0 0 0 0 15.1h3.8c9-.2 15.6 3.7 20.4 11 3.5 5.3 5.2 11.3 6.4 17.5 2 9.2 1 18.5 2 27.7A55 55 0 0 0 70 120c8.3 3 16.7 4 26 2h0zm-57-108c-3.6 1-6.4-.5-9.3-3.5 5-1.3 9.4-1.7 14.2-2-.4 3-2.2 4.8-5 5.4zM156 152.3c-.3-2.3-2.3-3.3-3.8-4.5-6.8-5.3-14.7-7-23-7.3a44 44 0 0 1-14.7-2.2c-2.2-.8-4.6-1.8-4.5-4.6.1-2.8 2.5-3.6 4.8-4.3 1.8-.5 3.7-1 5.8-1.4-5.3-3.4-10.5-4-17.5-1a44 44 0 0 1-32.5-.1c-6-2.2-11.6-5.7-17.3-8.8H53h.1c-.1-.4-.4-.4-.7-.2l.4.4c4.7 7.7 11 14 18.2 19.2 13.8 10.2 29 16.3 46.6 13.6a243 243 0 0 1 17.2-2c7.2-.6 14 1.4 21 3.3zM122.5 41.7c-.4-.3-.7-1-1.5-.3a56 56 0 0 0 24.4 18.9 67 67 0 0 0 48.5 1.9c12.8-4.4 22-.1 26.8 12.3.7-14.4-7.8-25-21.3-27-7.6-1.2-14.6 1.4-21.7 3.4-19.8 5.7-38.2 3-55-9.3zM221.3 98l7.7.7c-5.8-5-13-5.5-20-5-11 .6-18.8 7-26 14.5-6.3 6.7-12 14-21.5 16.8l.2.4h3.8c13.7-.6 26.7-3.5 37-13.5l9.3-10c2.6-2.7 5.8-4.2 9.6-4zm-32-17c-10.2 1-19.2 5-27.5 10.7a28 28 0 0 1-21.1 5l-4-.6v.6l1.5.8 4 1.4c15 3.5 29 1.7 42-6.6 8-5.2 16.5-6.2 25.6-5 1 .1 1.8.3 2.8.4 1 .1 1.7 1 3 0-8-5.7-16.5-7.6-26-6.8zM152.7 46c5.4.2 10.7-.5 16.4-4l-3 .3c-7.7 1.5-14.7-.1-21-5l-7-5.3c-9-7-19.6-9.3-31-9 .2.6.2 1 .4 1 12.5 12.6 27 21.3 45 22zm90 64.6c-7.7-7.6-18-8.6-27.6-2 6.3.3 11 2.3 15 6.3l4.3 4c5.8 4.7 15.7 5 21.5.6-6.8-2.6-6.8-2.6-13-9zM166 169.3c-6.8-12.6-18.2-15.5-31.3-14.6 4 1 7.5 2.7 11 5a53 53 0 0 1 8.2 7.5c5 5.4 13 8.7 18 7.5-2.4-1.5-4.5-3-5.8-5.5zm63-70.4v-.2c0 0 0 0 0 0h0-.1.1v.2zm-73 53.8l-.3-.2c0 .1 0 .1.1.2 0 0 .1 0 .2 0zm-.3-.2c0 0 0-.1 0-.1 0 0 0 0 0 0h0-.1c0 0 0 .1 0 .1h.1z" fill="#fd4f00"/></svg>