<svg xmlns="http://www.w3.org/2000/svg" xmlns:xlink="http://www.w3.org/1999/xlink" width="1177.82" height="724.47" xmlns:v="https://vecta.io/nano"><style><![CDATA[.B{opacity:.1}.C{fill:#3f3d56}.D{fill:#6c63ff}.E{fill:#f1c0c0}.F{fill:#be6f72}]]></style><g class="D"><path d="M1177.82 465.3a241.36 241.36 0 0 1-7.07 58.24q-2.38 9.63-5.53 18.86a222.72 222.72 0 0 1-8.92 22.32q-2.55 5.52-5.4 10.82a145.56 145.56 0 0 1-12.17 58.49 150.79 150.79 0 0 1-73.18 75.4 153.93 153.93 0 0 1-65.33 15H223.6a195.68 195.68 0 0 1-98.42-26.31l-.46-.26q-6.4-3.74-12.46-7.92a195.41 195.41 0 0 1-25.57-21.08 190.28 190.28 0 0 1-28.11-34.83 185.86 185.86 0 0 1-28.59-99.23c-18.95-33.25-30-73.08-30-115.88 0-54 17.56-103.26 46.4-140.55a197.6 197.6 0 0 1 19.71-21.93A183.42 183.42 0 0 1 88.64 238a175.38 175.38 0 0 1 20-12c2.9-1.47 5.8-2.86 8.74-4.15a158.08 158.08 0 0 1 7.86-3.23q4.77-1.8 9.66-3.33 4.9-1.52 9.65-2.66 7-1.7 14.24-2.78c4-.6 8-1 12-1.3 3.18-.24 6.4-.37 9.62-.4h1.75c3.56 0 7.1.14 10.6.38l1.14-2.22c1.4-2.67 2.85-5.33 4.3-7.93a.25.25 0 0 1 0-.07l.76-1.35a199.92 199.92 0 0 1 3.67-6.33c.58-1 1.15-1.94 1.74-2.88a7.66 7.66 0 0 1 .41-.68q.9-1.5 1.83-3 4.63-7.4 9.63-14.54l.85-1.22c.52-.74 1-1.46 1.58-2.2l4.23-5.77c1-1.36 2-2.7 3.08-4q3.9-5 8-10 4.1-5 8.52-9.87a50.51 50.51 0 0 1 1.22-1.33l4.27-4.66.6-.62c.5-.55 1-1.1 1.55-1.63 2.3-2.43 4.64-4.8 7-7.18a381.2 381.2 0 0 1 38.3-33.37c.53-.42 1.07-.82 1.6-1.22l7.7-5.66a405.31 405.31 0 0 1 44.41-27.7c1.06-.6 2.14-1.18 3.23-1.74a424 424 0 0 1 42.49-19.56 446.83 446.83 0 0 1 24.14-8.76c5.42-1.78 10.86-3.47 16.37-5.06q12.92-3.72 26.02-6.67A463.35 463.35 0 0 1 539.65.63q12-.6 24.27-.63a465 465 0 0 1 117 14.8 4.22 4.22 0 0 0 3.63 1.89h3.36l4.37 1.22q12.23 3.52 24.1 7.7l2 .72a430.44 430.44 0 0 1 56.91 25 410.69 410.69 0 0 1 47.65 29.44q3.5 2.52 6.92 5.08 4.14-2.65 8.42-5.08a165.62 165.62 0 0 1 34.88-14.87 159.1 159.1 0 0 1 78.24-3.06c33.25 7.05 63.35 24.55 87.66 49.44a204.55 204.55 0 0 1 26.29 33.38l1.63 2.6a220 220 0 0 1 16.74 33.37c.17.43.34.83.5 1.25a231.09 231.09 0 0 1 10.3 33.35l.38 1.73a240.11 240.11 0 0 1 4.92 33.37c0 .4 0 .8.08 1.23q.63 8.7.64 17.6a250.02 250.02 0 0 1-.51 15.78c0 .57-.08 1.16-.13 1.75-.1 1.5-.22 3-.35 4.52a189.79 189.79 0 0 1 21.38 20.17q4.37 4.77 8.46 9.9a210.61 210.61 0 0 1 21.8 33.37c16.9 31.92 26.63 69.47 26.63 109.66z" class="B"/><path d="M1064.82 705.74c0 6.83-23.53 13.23-64.6 18.73H223.6a195.68 195.68 0 0 1-98.42-26.31l-.46-.26c11.8-4.3 33.1-8.3 62.1-11.93h0l1.3-.16c13-1.6 27.53-3.1 43.4-4.53.4 0 .8-.06 1.2-.1h0q18.9-1.68 40.2-3.15c.45 0 .9-.08 1.34-.1q8.22-.6 16.78-1.12h0l2.2-.14c41.55-2.58 88.78-4.64 140-6h.06q10.76-.3 21.75-.53 12.22-.3 24.74-.5l19.3-.34h.15l90.2-.66c76.26 0 148.34 1.4 212.2 3.9h.18l28.86 1.23 8 .38q15.9.76 31 1.63h0c118.3 6.73 195.14 17.66 195.14 30z" class="B"/></g><g opacity=".2"><g class="C"><use xlink:href="#B"/><ellipse cx="681.21" cy="734.33" rx="14.01" ry="10.7" transform="matrix(.031585 -.999501 .999501 .031585 -85.32 1304.28)"/><ellipse cx="681.75" cy="717.21" rx="14.01" ry="10.7" transform="matrix(.031585 -.999501 .999501 .031585 -67.68 1288.24)"/><ellipse cx="682.29" cy="700.09" rx="14.01" ry="10.7" transform="matrix(.031585 -.999501 .999501 .031585 -50.05 1272.2)"/><ellipse cx="682.83" cy="682.97" rx="14.01" ry="10.7" transform="matrix(.031585 -.999501 .999501 .031585 -32.42 1256.16)"/></g><use xlink:href="#C" class="D"/><use xlink:href="#D" class="B"/></g><g opacity=".2"><g class="C"><use xlink:href="#B" x="-152"/><ellipse cx="529.21" cy="734.33" rx="14.01" ry="10.7" transform="matrix(.031585 -.999501 .999501 .031585 -232.53 1152.36)"/><ellipse cx="529.75" cy="717.21" rx="14.01" ry="10.7" transform="matrix(.031585 -.999501 .999501 .031585 -214.89 1136.32)"/><ellipse cx="530.29" cy="700.09" rx="14.01" ry="10.7" transform="matrix(.031585 -.999501 .999501 .031585 -197.26 1120.28)"/><ellipse cx="530.83" cy="682.97" rx="14.01" ry="10.7" transform="matrix(.031585 -.999501 .999501 .031585 -179.63 1104.24)"/></g><use xlink:href="#C" x="-152" class="D"/><use xlink:href="#D" x="-152" class="B"/></g><g opacity=".2"><g class="C"><path d="M943.48 674.97a37.3 37.3 0 0 1-.73 6.08q-20.1-3.2-40.5-5.74v-1.65a32.5 32.5 0 0 1 4.82-16.33c4-6.27 10-10.2 16.63-10s12.4 4.5 16 11a32.53 32.53 0 0 1 3.77 16.64z"/><ellipse cx="935" cy="729.11" rx="26.98" ry="20.61" transform="matrix(.031585 -.999501 .999501 .031585 165.69 1552.9)"/><ellipse cx="936.04" cy="696.15" rx="26.98" ry="20.61" transform="matrix(.031585 -.999501 .999501 .031585 199.64 1522.02)"/><ellipse cx="937.08" cy="663.2" rx="26.98" ry="20.61" transform="matrix(.031585 -.999501 .999501 .031585 233.59 1491.14)"/><ellipse cx="938.12" cy="630.24" rx="26.98" ry="20.61" transform="matrix(.03 -1 1 .03 267.53 1460.26)"/></g><path d="M857.03 314.5a99.27 99.27 0 0 1-7.31-11.53l54.4-7.18-58.55-1.4a98.9 98.9 0 0 1 .58-78.24l77.25 43.2-70.74-55.52c19.496-31.39 54.89-49.263 91.722-46.32s68.94 26.208 83.205 60.295 8.3 73.285-15.457 101.585a98.71 98.71 0 0 1 10.69 18.35l-71.4 34.3 75.7-22.8a98.75 98.75 0 0 1-18.83 92.15c30.546 41.453 24.1 99.422-14.805 133.153s-97.203 31.893-133.907-4.222-39.485-94.374-6.388-133.82c-27.015-36.684-25.43-87.088 3.84-122z" class="D"/><path d="M1031.33 381.07a98.34 98.34 0 0 1-23 60.34c30.546 41.453 24.1 99.422-14.805 133.153s-97.203 31.893-133.907-4.222-39.485-94.374-6.388-133.82c-12.74-17.2 178.45-66.52 178.1-55.45z" class="B"/></g><path d="M157.82 676.73l10.5-.03h14.8l18.7-303.78L387 63.9l-8.05-8.64V33.37l-200.28 332.4-20.84 310.97z" class="E"/><path d="M169.43 676.7h13.67l18.7-303.78L387 63.9l-8.05-8.64L187.92 368.3l-18.5 308.4z" class="B"/><path d="M126.9 679.26L607.17 716l464.74-28.58v-19.6l-511.7-9.4-430.03-.4-3.27 21.24z" class="E"/><path d="M126.9 679.26L607.17 716l464.4-28.56.35-.38v-18.84h-.4l-464.74 15.52-473.53-25.73-.84.55-2.55 1.65-2.93 19.04z" class="B"/><path d="M126.9 679.26l479.85 36.72v-32.23L132.4 658.57l-2.55 1.65-2.93 19.04z" class="B"/><path d="M378.88 54.84L590.43 281.9l-6.54 399.4 18.27 2.2h17.97l2.15-384.46 396.13 132.32 6.68 235.6 19.36 2.17-11.34-254.1L619 269.65 391.95 33.6h-13.07v21.24z" class="E"/><path d="M620.65 291.7l1.63 7.35 396.13 132.32 6.68 235.6 14.46 1.62-11.34-242.12L620.65 291.7zM378.88 54.84L590.43 281.9l-6.54 399.4 17.97 2.17 4.9-414.64L378.88 33.6v21.24z" class="B"/><path d="M621.42 452l399.8 78.75 11.65-4.67-.04-.82-.76-16.25-410.5-82.95-.15 25.94z" class="E"/><path d="M766.76 480.6l254.47 50.13 11.65-4.67-.04-.82-266.08-44.64z" class="B"/><path d="M776.5 350.56l5.96 327.33 29.15-.98-3.5-323.22-7.76-2.58-1.7-.55H776.5z" class="E"/><path d="M776.65 350.5v.05l5.8 327.33 17.9-.6V350.5h-23.7z" class="B"/><g class="C"><path d="M496.26 405.8a22.79 22.79 0 0 1 3 1.95 19.85 19.85 0 0 1 3 3.29c4.3 5.55 8.25 12 7.83 19a7.73 7.73 0 0 1-2.23 5.5c-1.77 1.5-4.3 1.58-6.63 1.58-2.52 0-5.17 0-7.35-1.3s-4-3.83-6.58-3.77a3.37 3.37 0 0 1-1.1 0c-.9-.3-1.07-1.46-1.65-2.2-1-1.33-3.1-1-4.68-.42s-3.3 1.45-4.86.78a5.05 5.05 0 0 1-2.11-2.11c-3.7-6-4.5-13.2-5.2-20.18-.43-4.24-3.7-18.7 5.34-15.4 4 1.44 7.74 4.32 11.38 6.43z"/><path d="M487.32 407.24a4.46 4.46 0 0 0 5.49-.22 8.27 8.27 0 0 0 2.67-5.18c1-.3 1.5 1 2.15 1.8 1.12 1.36 3.4 1.34 4.42 2.8.7 1 .55 2.4 1.05 3.52.65 1.46 2.26 2.22 3.36 3.4a11.58 11.58 0 0 1 2.2 4.39l1.64 4.92a24.32 24.32 0 0 1 1.5 6.37 8.25 8.25 0 0 1-1.9 6.09c-2.2 2.37-5.8 2.62-9 2.55a11.58 11.58 0 0 1-3.16-.37c-2.83-.88-4.64-3.73-5.4-6.6s-.67-5.88-1.1-8.82a34.57 34.57 0 0 0-2.5-8.38c-.88-2.08-3.3-5.18-3.26-7.4.72 0 1.24.66 1.84 1.13z"/></g><path d="M490.9 397.1a16.51 16.51 0 0 1-.81-4.39c0-3 1.37-5.82 2.75-8.5l-11.43 1.55c-1.38.2-2.92.47-3.7 1.62a4 4 0 0 0 0 3.69 18.86 18.86 0 0 1 1.36 3.57 17.83 17.83 0 0 0 .37 3.21 6.8 6.8 0 0 0 1.47 2.07c3.27 3.62 5.72 7.9 8.16 12.12-.07-.12 6.9-5.5 6.6-7.27-.16-1-2.17-2.2-2.8-3.16a16.09 16.09 0 0 1-1.97-4.51z" class="F"/><path d="M588.9 358.04v9.85l-168.67 32.9-8.75 5.3h-30.2v-5.55l165.72-40.04 41.9-2.46z" class="E"/><path d="M588.9 367.9l-168.67 32.9-8.75 5.3h-30.2l166.95-35.73 40.66-2.47z" class="B"/><path d="M453.5 637.66a13.07 13.07 0 0 0-15.9-3.38 4.19 4.19 0 0 0-1.46 1.14c-1 1.4-.36 3.33-.27 5.06.23 4.22-3.13 7.65-6.15 10.6-1.62 1.58-3.27 3.27-4 5.42s-.2 4.88 1.77 6a7.37 7.37 0 0 0 2.74.76 29.57 29.57 0 0 0 9.7.27c3.2-.6 6.32-2.42 7.7-5.36a5.65 5.65 0 0 1 1.29-2.13c1.76-1.4 4.46.24 6.46-.75 1.65-.82 1.72-2.1 1.74-3.8.06-4.7-.64-10.02-3.62-13.82zm24-.18c1.23 3.24 1.4 6.77 1.56 10.23.1 2 .15 4.14-.93 5.83s-3.2 2.58-5.2 3c-4.17.86-9 .05-11.7-3.26-2.06-2.53-2.5-6-2.1-9.28.32-2.7 1-5.84-.93-7.75-.5-.5-1.15-.87-1.6-1.42-1-1.22-.84-3.06-.3-4.56a19.81 19.81 0 0 0 1.57-4.51c.08-.74 13.54.52 14.78 1.13 1.7.83 1.43 2.22 1.94 3.9.7 2.34 2.07 4.45 2.93 6.7z" class="D"/><path d="M479.96 493.82c2.64 1.7 3.66 5.07 4.07 8.2 1.13 8.55-.85 17.2-1 25.82-.14 12.1 3.36 24.4.37 36.1-1.8 7-.27 15-1.95 22.07-.5 2.1-1.42 4.08-1.9 6.18-1 4.55.05 9.3 1.46 13.76a14.21 14.21 0 0 1 .85 3.73 13.42 13.42 0 0 1-1.46 5.64l-6 14.2c-.67 1.6-3.3 1.85-5 2.06-3.18.38-6.73.65-9.26-1.32s-3.14-5.27-3.53-8.35a128 128 0 0 1-1-17.83 14.69 14.69 0 0 0-.41-4.63c-.55-1.7-1.76-3.2-2.1-5-.42-2.34.77-4.64 1.2-7a21.09 21.09 0 0 0-.1-6.49c-.4-3.2-.84-6.4-1.35-9.58-.72-4.45.3-8.84 1-13.3.65-4.2-.18-8.46-1-12.62a34.79 34.79 0 0 1-1.25 10c-.53 1.6-1.3 3.1-1.75 4.73-2.05 7.27 2.32 14.9 1.7 22.43-.3 3.52-1.67 7-1.28 10.47.27 2.54 1.45 4.87 2.26 7.3s1.23 5.2 0 7.45c-3.25 6.14-.82 14.5 2.1 20.8a28.06 28.06 0 0 1 1.54 3.46c.86 2.84.14 5.9.37 8.85a5.58 5.58 0 0 1-4.69-1.41c-.44-.46-.8-1-1.23-1.48a12.21 12.21 0 0 0-4.18-2.61 5.49 5.49 0 0 0-3-.69 6 6 0 0 0-2.85 1.77 27.94 27.94 0 0 1-3.14 2.39 3.72 3.72 0 0 1-1.6.71 1.41 1.41 0 0 1-1.47-.75 1.78 1.78 0 0 1-.11-.52 79.14 79.14 0 0 1-.59-9.1c0-5.23-6.26-8.83-7.05-14-.63-4.17.54-8.42.15-12.62-.2-2.16-.8-4.28-.75-6.44 0-1.4.32-2.77.43-4.16a31.12 31.12 0 0 0-.07-4.63l-.3-4.83c-.3-4.77-.63-9.64-2.5-14a47.57 47.57 0 0 1-3.9-16.08c-.2-3.5-.07-7-.47-10.5-.36-3.17-1.16-6.32-.93-9.5.2-2.46 1-4.84 1.2-7.3.4-4.73-1.4-9.33-2.82-13.86s-2.45-9.55-.6-13.92a4.57 4.57 0 0 1 1.28-1.86 5.58 5.58 0 0 1 2.36-.88 183.11 183.11 0 0 1 52.22-3.33 17.34 17.34 0 0 1 8.05 2.51z" class="C"/><g class="F"><circle cx="423.19" cy="371.59" r="16.02"/><path d="M420.1 391.6a5.72 5.72 0 0 1 0 2.79 6.32 6.32 0 0 1-1.05 1.76 45.2 45.2 0 0 1-5.13 5.58 9.29 9.29 0 0 0 4.79 4.73 27.81 27.81 0 0 0 6.61 1.89 9.32 9.32 0 0 0 3.48.24 9.23 9.23 0 0 0 3-1.36l8.9-5.33a17.78 17.78 0 0 0 3.7-2.67 9.11 9.11 0 0 0 2.58-6.26 1.72 1.72 0 0 0-.32-1.18 2.1 2.1 0 0 0-1.22-.51c-3.13-.7-5.6-3.23-7-6.1a32.36 32.36 0 0 1-2.43-9.27l-9.5 5-4.27 2.15c-.93.42-2.8.77-3.47 1.62-1.26 1.57 1 5.04 1.32 6.93z"/></g><path d="M413.97 398.82a10.55 10.55 0 0 0-3.07 4.15c-.62 2 0 4.1.56 6.1a181.7 181.7 0 0 1 6 25.79c.84 6 1.15 12.1 1.56 18.16.84 12.38 2.06 32.12 3.7 44.42 6 .27 11.85-1.48 17.8-2.12 11.12-1.18 22.57 1.52 33.46-1-2.64-10.43-5.28-28.24-7.92-38.66a73.77 73.77 0 0 1-2.42-12.55c-.23-3.05-.1-6.1-.05-9.18.1-6-.24-12-.57-18-.38-7-.76-14-2.42-20.85a3.88 3.88 0 0 0-1.16-2.29c-1-.73-2.3-.47-3.5-.3a15.18 15.18 0 0 1-10.38-2.46c-1.32-.9-3.1-2-4.32-1a4.3 4.3 0 0 0-1 2.13 10.65 10.65 0 0 1-6.26 6.17 31.33 31.33 0 0 1-8.86 1.82 4.35 4.35 0 0 1-2.75-.31c-1.42-.87-1.52-4-3.3-4.2-1.57-.18-4.03 3.2-5.1 4.2z" class="C"/><path d="M437.63 423.24c-3.7-3.53-5.3-8.65-8-13a28.94 28.94 0 0 0-6.91-7.6 20.61 20.61 0 0 1-3.76-3.19c-.95-1.17-1.67-2.73-3.1-3.18a3.76 3.76 0 0 0-3.37.93 33.16 33.16 0 0 0-2.5 2.66c-4.24 4.4-11.7 5-15.05 10.08a8.26 8.26 0 0 0-1.79 3.75 29.06 29.06 0 0 0 5.34 20.9 7.1 7.1 0 0 0 3.7 3 11.58 11.58 0 0 0 .72 5.5 147.07 147.07 0 0 0 6.81 18.55 44.87 44.87 0 0 0-1.34 7.19c-.7 6.1-.05 12.3-.7 18.43-.54 5-2 9.87-2.05 14.88 0 .8.07 1.75.76 2.16a2.3 2.3 0 0 0 1.19.25l12.3.37c7.14.2 14.35.42 21.38-.9a8.9 8.9 0 0 0 2.69-.85c2.38-1.33 3.17-4.33 3.55-7a61 61 0 0 0 .59-10.46c1.5 4.7 3.26 9.58 7.76 11.62 2.38 1.08 5.1 1 7.7.93a145.16 145.16 0 0 0 16.79-1.73 2.21 2.21 0 0 0 2.45-2.57l.06-5.46c.12-11.1-2.63-21.7-3.7-32.73-.34-3.48-.3-7-1.16-10.4-.35-1.43-.86-2.83-1.17-4.27a30.52 30.52 0 0 1-.5-4.27l-.78-11-1.3-15.08a73 73 0 0 0-2.14-14.66c-.87-3-2.68-6.4-5.8-6.77-1.67-.2-3.3.54-4.88 1.05a19.72 19.72 0 0 1-12-.05 16.9 16.9 0 0 0-3.74-1 3.67 3.67 0 0 0-3.42 1.42 5.13 5.13 0 0 0-.53 2.52c-.47 10-1.34 20.28-4.1 30z" class="D"/><path d="M421.54 423.54c-4.6-4.86-9.34-9.8-15.28-12.9-2.34-1.22-5-2.14-7.6-1.68s-5 2.7-4.88 5.34c.08 1.63 1.07 3.07 1.38 4.67.36 1.8-.16 3.72.4 5.46a9.24 9.24 0 0 0 2 3.07l7.08 8.4c3 3.5 6 7.05 9.86 9.47s8.86 3.55 13.1 1.83a16.1 16.1 0 0 0 7.18-6.59c1.76-2.8 3-5.86 4.65-8.75a43.45 43.45 0 0 1 10-12.13c-2.08-.54-4.7-1.3-6-3a9.91 9.91 0 0 1-.95-1.72l-1.62-3.5a4 4 0 0 0-3 1.13 25.16 25.16 0 0 1-2.23 2.27c-1.4 1.06-3.32 1.35-4.6 2.56a12.19 12.19 0 0 0-1.34 1.68 11.22 11.22 0 0 1-8.16 4.4z" class="C"/><path d="M449.8 402.63c3.47-6.33 3.3-13.92 4.3-21.07a9.62 9.62 0 0 1 1.91-5.23c2-2.26 5.53-2.3 8.55-2 .9.1 2 .52 1.95 1.4a1.8 1.8 0 0 1-.45.85 23.79 23.79 0 0 0-4.94 13.12c1.57 1.1 4-1.15 5.5 0 1 .84.54 2.5-.06 3.7q-2.1 4.17-4.3 8.28a26.59 26.59 0 0 1-4.57 6.59c-1.27 1.22-2.76 2.18-4.05 3.38-3 2.8-4.8 6.78-7.9 9.52a1.62 1.62 0 0 1-1 .51 1.68 1.68 0 0 1-1.05-.47 15.16 15.16 0 0 1-3.78-4.57c-1.18-2.18-1-2.82.86-4.36 3.48-2.75 6.87-5.7 9.04-9.66z" class="F"/><path d="M415.74 419.24c.6.37 1.34.8 2 .48a2.08 2.08 0 0 0 .67-.65 23.54 23.54 0 0 0 2.84-4.94 1.9 1.9 0 0 0 .21-.8c0-.64-.57-1.1-1.1-1.48a40.76 40.76 0 0 0-9.09-4.32c-2.64-1-5.4-1.87-8.2-1.62a7.82 7.82 0 0 0-5.47 2.78c-2 2.57 1.35 3.35 3.45 4.28 4.86 2.2 10.12 3.5 14.7 6.27z" class="D"/><path d="M412.6 436.24a1.47 1.47 0 0 0 .42 1.26c.3-1.42-.1-2.92.2-4.35.44-2.15 2.53-3.77 2.7-5.93-3.83-.75-3.3 6.7-3.34 9.02z" class="B"/><path opacity=".2" d="M588.9 358.04v9.85l-40.66 2.47-1.23-9.86 41.9-2.46z"/><path d="M408.77 373.97c2.54-2.07 1.07-6.4 2.8-9.2 1-1.52 2.7-2.32 4.35-3a19.79 19.79 0 0 1 6.35-1.76 7.37 7.37 0 0 1 6 2.21c.65.74 1.1 1.64 1.7 2.4a6.5 6.5 0 0 0 6.3 2.18c1.33-.3 2.7-1.3 2.62-2.67a3.77 3.77 0 0 0-1.2-2.14l-2.86-3.17c-3.25-3.6-6.86-7.42-11.63-8.32-3.32-.63-6.72.26-9.92 1.33-1.3.43-2.74 1.07-3.1 2.38-.24.9.12 1.88-.1 2.8-.4 1.8-2.73 2.42-3.8 3.94s-.75 3.32-1.06 5-1.2 3.32-1.32 5.06c-.07 1.05.46 3 1.64 3.38s2.5-1.68 3.24-.43z" class="C"/><path d="M437.9 362.7a30 30 0 0 0-5.32-12.16 21.31 21.31 0 0 0-9.47-7.52 13.56 13.56 0 0 0-11.79.93 17.12 17.12 0 0 0-5.89 7.43c-2.6 5.58-3.55 12.4-.54 17.76 1.2-1.46 3.26-.8 5.08-1.33 2.28-.65 4.2-2.17 6.38-3.12 6.55-2.9 14.55-.55 21.55-2z" fill="#fed253"/><path d="M406.43 362.4c-.23-1.8-.38-3.9.9-5.17a.65.65 0 0 1 .53-.24.69.69 0 0 1 .41.36 22.38 22.38 0 0 1 1.88 3.68 3.82 3.82 0 0 0-4 1.55m23.65-5.26l-.36-3.57a1.63 1.63 0 0 1 .07-.88 1.13 1.13 0 0 1 1.46-.4 3 3 0 0 1 1.17 1.17 21 21 0 0 1 2.06 4.07 12.1 12.1 0 0 0-4.87.06m9.42 144.43v8.16l-6.9.46H395.6v-8.62h43.13z" class="B"/><path d="M438.75 502.2v8.62h-43.13L281.04 367.3v-6.78h24.02l133.7 141.7z" class="E"/><path d="M438.75 502.2v8.62h-43.13L281.04 367.3v-6.78h24.02l133.7 141.7z" class="B"/><path d="M438.75 502.2v8.62h-43.13L281.04 367.3v-6.78l115.2 141.7h42.5z" class="B"/><path d="M296.06 646.07a3 3 0 0 1-2.62 3.53c-2.78.94-5.73 1.87-7.7 4s-2.36 6.08 0 7.8a7.59 7.59 0 0 0 4 1.09c4.53.3 9.25.25 13.36-1.67 2.94-1.36 5.7-3.68 8.94-3.47 1.67.1 3.45.88 4.94.12s1.9-2.88 1.92-4.65a34.43 34.43 0 0 0-1.65-10.89c-.15-.48-6.5-.85-7.27-1l-7.7-1c-1.46-.2-4.6-1.3-5.76-.07s-.45 4.75-.45 6.2zm46-24.97a24.15 24.15 0 0 0 1.58 5.24c1.07 2.72 2.44 5.6 5.06 6.93 2.38 1.2 5.3.76 7.72-.37a6.36 6.36 0 0 0 2.57-1.95 7.74 7.74 0 0 0 1-4.49c0-3.87-.23-7.87-2-11.3-1.52-3-4.17-5.58-4.2-8.9l-9.1 1.76a2.6 2.6 0 0 0-1.34.53 2.31 2.31 0 0 0-.58 1.09 29.77 29.77 0 0 0-.69 11.47zm-108.8-95c-.38 3.22-.22 6.67 1.46 9.45s5.22 4.62 8.28 3.5a1.21 1.21 0 0 0 .75-.57 1.41 1.41 0 0 0-.13-1 14.76 14.76 0 0 1 .31-11.12c.2-.46.63-1 1.1-.82a1 1 0 0 1 .45.46 5.23 5.23 0 0 1 .7 2.76 10.26 10.26 0 0 0-.08 2.65c.2.86 1.1 1.67 1.9 1.3a2 2 0 0 0 .91-1.29c2.23-6.45 1.22-13.5.2-20.25a1.06 1.06 0 0 0-1.19-1.11c-4.72-.47-7.3-1.6-10 2.8-2.32 3.7-4.67 8.8-4.67 13.24z" class="D"/><path d="M288.46 509.7c-1.4 5.82-2.8 11.7-2.9 17.7a81.27 81.27 0 0 0 .84 11.13l1.05 8.66c.36 2.92.7 5.83 1.22 8.72a23.15 23.15 0 0 1 .53 4.53 24.26 24.26 0 0 1-.71 4.45 52 52 0 0 0-1.05 9.3c-.1 5 .5 10 .9 15a167.05 167.05 0 0 1-.35 29.92 11.22 11.22 0 0 0 1.64 7.71 9.92 9.92 0 0 1 1.45 2.38c.75 2.3-1 4.58-1.45 6.93a7 7 0 0 0 5.82 8c8 .95 16.22.52 23.43 4.18.76-2.22-.9-4.74-.14-7 .48-1.4 1.8-2.3 2.7-3.5a10.16 10.16 0 0 0 1.72-6.1 22.29 22.29 0 0 0-1.48-8.27c-.85-2.2-2.07-4.37-2-6.73 0-1.16.4-2.38-.06-3.45a5.39 5.39 0 0 0-1.29-1.61 20.33 20.33 0 0 1-5.23-11.85 54.58 54.58 0 0 1 .42-13.14c.5-4.14 1.15-8.5 3.78-11.74a75.33 75.33 0 0 1 2.11-29.25c.26-.88.67-1.9 1.57-2.1a2.24 2.24 0 0 1 1.92.76c1.57 1.47 2.32 3.6 3 5.64.75 2.2 1.5 4.57.94 6.83-.24 1-.72 1.88-1 2.84a8.42 8.42 0 0 0 .3 5.87 5.64 5.64 0 0 1 .72 2.21 6.12 6.12 0 0 1-.6 1.92 8.84 8.84 0 0 0 .83 7.15 25.89 25.89 0 0 0 4.67 5.73 21 21 0 0 0 .65 11.56 1.46 1.46 0 0 1 .13 1.11c-.18.38-.64.52-1 .8-1 .82-.38 2.37.3 3.44a78.88 78.88 0 0 0 6.07 8.42c2 2.4 1.82 7 4.8 7.86a9 9 0 0 0 3.8 0c2.94-.45 6.22-1.3 7.66-3.9.6-1.07.83-2.37 1.75-3.17s2.1-.94 2.62-1.9-.06-2.22.1-3.33 1.14-2 1.45-3.17c.74-2.7-2.4-4.92-2.84-7.68-.62-4 4.42-7 4.2-11l-1.17-26.1a188.26 188.26 0 0 1-.24-23.39c.35-4.85 1-9.93-.78-14.44-2.56-6.36-9.62-9.93-16.45-10.6s-13.64.94-20.4 2a129 129 0 0 1-33.95.71z" class="C"/><g fill="#fbbebe"><circle cx="308.76" cy="398.1" r="16.02"/><path d="M302.24 417.1a6.83 6.83 0 0 1-6.53 4.13c-.58 2.4.8 4.82 2.4 6.7a28.48 28.48 0 0 0 27.26 9.35 13.45 13.45 0 0 0 5.37-2.24 11.91 11.91 0 0 0 4.1-7.1 35.3 35.3 0 0 0 .39-8.35 2.16 2.16 0 0 0-.44-1.54 2.2 2.2 0 0 0-1.4-.46c-3.38-.3-6.9-.43-9.88-2.1s-5.08-5.4-3.65-8.5c-.23.48-6.07.7-6.84.8-2.4.34-4.82.72-7.22 1.16a13.13 13.13 0 0 0-3.39.64c-1.45.75-.9.38-.57 1.74.5 2.08 1.26 3.57.4 5.73z"/></g><path d="M314.43 426.85a26.53 26.53 0 0 1-6.41-.71 9 9 0 0 1-5.26-3.51c-.74-1.12-1.22-2.53-2.4-3.16-1.93-1-4.13.7-5.67 2.24a20.6 20.6 0 0 1-4.82 3.88c-2.14 1.13-4.64 1.53-6.66 2.86a16.74 16.74 0 0 0-4 4.32l-14.17 19.3c-5.7 7.76-10.64 16.1-15.7 24.28-4.4 7.1-6.7 15.25-10 22.9a2.56 2.56 0 0 0-.31 1.54c.12.52.75.94 1.2.64-1.5 1.48-.18 4-.53 6.08a7.46 7.46 0 0 1-2.38 3.73 18.8 18.8 0 0 1 6.6.31 20.23 20.23 0 0 1 6.24 3c1.2-.2 1.1-2.34 2-3.14.54-.47 1.34-.4 2.05-.55 2.67-.52 3.73-3.73 5.78-5.54 1.7-1.5 4.13-2 5.94-3.42 2.94-2.3 3.57-6.42 5.1-9.83 1.3-2.9 3.37-5.4 4.52-8.37.75-1.92 1.1-4 2.18-5.77 1.7-2.86 4.93-4.38 8-5.75 1.94-.87 4-1.77 6.1-1.63-.1 4.65-.7 9.23.3 13.77.35 1.6.84 3.16 1.26 4.75 1.9 7.16 2.36 14.62 2.45 22a66.94 66.94 0 0 1 14-1.68c3.7-.1 7.4.37 11.12.3 4.4-.08 8.75-.93 13.15-1.23s9 0 12.9 2a122.46 122.46 0 0 1 .53-19l1.06-9.94a61.07 61.07 0 0 1 1.33-8.58c.58-2.28 1.42-4.48 2.06-6.75 2.25-8 1.84-16.54 1.4-24.87-.22-4.28-1.87-8.5-3.8-12.3a33.29 33.29 0 0 0-2.4-4.08 23.63 23.63 0 0 0-20.66-9.7 4.18 4.18 0 0 0-1.48.32 4.93 4.93 0 0 0-1.89 2.25 24.5 24.5 0 0 1-8.71 9.04zm-19.76-23.45c.45-1 1.66-1.37 2.4-2.17 1.42-1.52.78-3.95 1-6 .36-3 2.85-5.5 5.7-6.58a18.42 18.42 0 0 1 9-.57 8.71 8.71 0 0 1 4.06 1.35c.52.38 1 .87 1.5 1.22a4 4 0 0 0 5.44-1.27c-3.54-4.26-7.46-8.76-12.84-10.07a26.34 26.34 0 0 0-5.61-.53c-2.5-.05-5.06-.1-7.36.86-3.13 1.3-5.33 4.26-6.46 7.46a36.27 36.27 0 0 0-1.57 10 37.67 37.67 0 0 0 0 6.8 18.8 18.8 0 0 0 3.34 8.57 2.59 2.59 0 0 0 1 .93c4.56 2 .04-9.17.4-10z" class="C"/><path d="M323.24 386.92c-.55-4.7-3.9-8.6-7.48-11.73a27.58 27.58 0 0 0-10.05-6.05c-3.77-1.1-8.1-.87-11.34 1.38-2.6 1.8-4.25 4.7-5.52 7.6a23.89 23.89 0 0 0-2.41 11c.25 3.78 2.1 7.6 5.37 9.52 1.18-1.74 3.23-2.64 5.2-3.35a254.61 254.61 0 0 1 26.23-8.36z" fill="#fed253"/><path d="M292.9 384.96c.32 0 .53.33.7.6a25.35 25.35 0 0 1 2.09 4c-1.17.25-3.18.53-3.76-.5-.3-.52.06-4.15.98-4.1zm22.8-2.26c-.24.23-.52-.24-.52-.58v-3.88a.57.57 0 0 1 .07-.31.47.47 0 0 1 .33-.16c.8-.1 1.48.6 2 1.26a21.12 21.12 0 0 1 2.05 3.41l-4.23-.13" class="B"/><path d="M368.5 446.95a26.17 26.17 0 0 1 2.94-2.41c2.77-1.85 6.12-2.58 9.23-3.76s6.27-3.1 7.48-6.2a14.7 14.7 0 0 0 .58-6 6 6 0 0 0-.44-2.47 4.91 4.91 0 0 0-1.58-1.72c-4.22-3.12-9.88-3.37-15.12-3.05a94.77 94.77 0 0 0-33.41 8.34 2.9 2.9 0 0 0-1.4 1 2.86 2.86 0 0 0-.27 1.39 23 23 0 0 0 1.13 8.71c1.38 3.56 4.22 6.43 5.4 10.06.54 1.63.72 3.36 1.2 5a7 7 0 0 0 2.81 4.18c3.95 2.36 7.68-.8 10.42-3.27z" class="C"/><path d="M316.76 460.8l-5.07-11.06a38.71 38.71 0 0 1-1.92-4.73c-.58-1.93-.86-3.93-1.4-5.87-1.78-6.46-6.27-11.84-8.46-18.17a3.45 3.45 0 0 0-.82-1.53 2.67 2.67 0 0 0-2.23-.4c-3.06.53-5.45 2.86-8.25 4.18-1.3.6-2.7 1-4 1.7a5 5 0 0 0-2.68 3.19c-.3 1.53.45 3 1.1 4.5 2.72 6.14 3.34 13 3.46 19.72.1 4.52-.14 9.37-2.8 13-5.13 7-1.85 17.28.07 25.75.23 1 .5 2.08.66 3.14a28.87 28.87 0 0 1 .23 4c0 4.5-.25 9.12-2.13 13.2a14.76 14.76 0 0 0 6 1.7q8.7 1.1 17.5 1.56a19.06 19.06 0 0 0 5.49-.28 10 10 0 0 0 7.39-9.8c.32 2.77.9 5.78 2.92 7.7s4.94 2.2 7.67 2.36a142.6 142.6 0 0 0 23.1-.65 4 4 0 0 0 1.42-.33c1.48-.74 1.56-2.78 1.44-4.42-.22-3.07-.45-6.14-.82-9.2a37.61 37.61 0 0 1-.48-5.88 33.83 33.83 0 0 1 1-6c1.34-6.24 2.4-12.6 1.95-19a32.06 32.06 0 0 1-.19-4.69c.26-3.53 2.12-6.9 1.77-10.4-1-10.32-1.8-20.9-4.7-30.87-.52-1.78-1.18-3.7-2.73-4.7-2-1.34-4.8-.64-7.1-1.5a17.76 17.76 0 0 1-3.05-1.81 14 14 0 0 0-6.89-2.12c-1.84-.07-3.9.34-5 1.82a7.26 7.26 0 0 0-1 2.73c-1.45 6.1-3.15 12.13-4.85 18.16l-1.63 5.78-4.37 15.52c-.43 1.65-.14 2.16-.58 3.72z" class="D"/><path d="M342.33 400.25l96.73 101.65v8.62h-43.13l-72.7-94.87" class="E"/><path d="M342.33 400.25l96.73 101.65v8.62h-43.13l-72.7-94.87" class="B"/><path d="M324.78 414.3l.3.1 71.46 87.48h42.5v8.62h-43.13l-72.7-94.87 1.54-1.34z" class="B"/><path d="M335.9 416.45c-3.5 1.53-7.4 3.5-8.44 7.17a4.12 4.12 0 0 0-.13 2 4.08 4.08 0 0 0 3.67 2.81 12 12 0 0 0 4.81-.88l20.65-6.82c.56-.18 1.2-.45 1.34-1a1.72 1.72 0 0 0-.2-1c-.64-1.56-1.27-4.75-2.6-5.84-1.1-.88-3.28-.57-4.6-.55-5.12.04-9.93 2.1-14.48 4.1z" class="D"/><path d="M354.32 421.54a33.21 33.21 0 0 1 10.25 1.59 18.26 18.26 0 0 1 8.49 5.8 6.36 6.36 0 0 1 1.34 2.62c.2 1 3.46 1.6 2.74 2.28 2.2-.35 1.67.68 3.9.66s4.62-.6 5.95-2.36a7.73 7.73 0 0 0 1.17-4.89 8.33 8.33 0 0 0-.66-3.46c-1-2.1-3.3-3.23-5.42-4.2l-17.86-8.17a11.86 11.86 0 0 0-3.3-1.17 12.34 12.34 0 0 0-2.91.07l-8.1.93a12.13 12.13 0 0 1 5.53 10.67" class="C"/><defs ><path id="B" d="M680.28 664.03a19 19 0 0 1-.37 3.21q-10.44-1.66-21-3v-.86a16.88 16.88 0 0 1 2.5-8.48c2.06-3.26 5.2-5.3 8.64-5.2s6.44 2.34 8.3 5.7a16.87 16.87 0 0 1 1.94 8.61z"/><path id="C" d="M635.38 476.8a49.66 49.66 0 0 1-3.8-6l28.26-3.73-30.42-.73a51.38 51.38 0 0 1 .31-40.64l40.12 22.45-36.75-28.84a51.28 51.28 0 0 1 90.928 7.187 51.28 51.28 0 0 1-8.088 52.813 50.8 50.8 0 0 1 5.55 9.53l-37.1 17.8 39.33-11.83a51.34 51.34 0 0 1-9.82 47.91c15.87 21.532 12.524 51.646-7.686 69.17s-50.494 16.568-69.56-2.193-20.51-49.026-3.314-69.516c-14.04-19.056-13.215-45.247 2-63.38z"/><path id="D" d="M725.9 511.37a51 51 0 0 1-12 31.34c15.87 21.532 12.524 51.646-7.686 69.17s-50.494 16.568-69.56-2.193-20.51-49.026-3.314-69.516c-6.57-8.93 92.74-34.55 92.56-28.8z"/></defs></svg>