<svg xmlns="http://www.w3.org/2000/svg" xmlns:xlink="http://www.w3.org/1999/xlink" width="885.587" height="762.892" xmlns:v="https://vecta.io/nano"><style><![CDATA[.B{fill:#6c63ff}.C{fill:#3f3d56}.D{fill:#ffb9b9}]]></style><path d="M219.742 245.024s-94.716 32.622-112.88 62.735 112.88-62.735 112.88-62.735z" class="B"/><path d="M56.09 349.443c-1.333.1-2.644-.384-3.593-1.326-2.947-2.654-.538-7.672 1.528-11.217 27.7-47.5 167.04-97.558 172.956-99.666l12.742-4.538-10.9 7.993c-.403.296-40.936 29.965-82.43 57.917-64.51 43.458-83.662 50.837-90.292 50.837zM214.6 246.113C178.014 260.274 79.42 301.2 57.44 338.892c-2.927 5.017-2.308 6.277-2.3 6.288.592.64 8.08 4.65 88.55-49.525 28.052-18.885 55.727-38.606 70.906-49.54z" class="C"/><path d="M217.69 212.44s-87.284-8.972-113.763 6.36 113.763-6.36 113.763-6.36z" class="B"/><path d="M98.748 227.105c-30.553 0-32.65-4.898-33.61-7.137-1.92-4.48 3.423-8.7 5.18-10.086 37.886-29.912 152.96.316 157.84 1.617l9.36 2.496-9.59 1.37c-.386.055-38.94 5.54-77.85 8.972-22.69 2.002-39.238 2.77-51.328 2.77zm26.774-26.36c-21.52 0-41.207 3.117-52.756 12.236-3.485 2.75-4.35 4.607-3.996 5.427.886 2.065 9.34 8.31 80.958 2 26.688-2.355 53.207-5.677 67.292-7.54-18.046-4.154-57.113-12.113-91.498-12.113z" class="C"/><path d="M242.668 197.068S198.764 91.65 209.402 81.215s33.266 115.853 33.266 115.853z" class="B"/><path d="M245.096 206.34l-5.46-13.95c-.133-.342-13.5-34.558-24.497-69.784-22.672-72.55-13.38-78.744-10.326-80.78a5.14 5.14 0 0 1 5.247-.443c17.124 7.98 31.768 135.55 33.382 150.07zM207.82 44.82c-.295.014-.58.118-.814.296-10.9 7.274 11.208 78.888 30.65 131.01-6.67-53.746-18.95-126.353-29.266-131.16a1.34 1.34 0 0 0-.571-.147z" class="C"/><path d="M259.262 220.25s23.564-106.554 48.25-106.554-48.25 106.554-48.25 106.554z" class="B"/><path d="M253.044 227.602l2.33-8.773c1.712-6.434 42.4-157.573 86.878-157.573 6.098 0 8.728 2.86 9.863 5.26 11.86 25.118-82.506 140.95-93.304 154.075zm89.21-162.394c-35.502 0-70.793 112.21-80.47 145.466 31.842-39.56 95.31-124.36 86.76-142.47-.35-.74-1.414-2.996-6.29-2.996z" class="C"/><path d="M273.094 221.312s81.016-51.196 247-35.568-247 35.568-247 35.568z" class="B"/><path d="M267.567 223.447l4.24-3.636c.86-.736 21.512-18.194 62.894-32.234 38.08-12.922 101.56-25.095 187.714-9.707 36.4 6.5 41.126 11.344 40.81 15.61-.313 4.214-1.046 14.085-146.48 23.235-71.068 4.47-142.88 6.55-143.598 6.572zm176.66-48.81c-93.582 0-148.908 33.25-164.95 44.508l137.232-6.374c135.14-8.503 142.644-17.804 142.776-19.582.015-.2-.085-4.734-37.56-11.427-25.57-4.657-51.505-7.04-77.496-7.125z" class="C"/><path d="M324.47 227.316s141.91-1.894 149.884 13.26-149.884-13.26-149.884-13.26z" class="B"/><path d="M492.526 266.036c-45.298 0-154.178-32.526-168.63-36.905l-11.842-3.588 12.37-.278c18.153-.406 177.64-3.06 187.674 29.05 1.19 3.803-.19 6.244-1.555 7.62-2.856 2.88-9.245 4.1-18.017 4.1zm-155.112-37c66.565 19.51 158.993 41.552 170.324 30.118.614-.62 1.235-1.595.6-3.66-7.128-22.812-115.905-26.83-170.914-26.458z" class="C"/><path d="M296.806 243.048s85.715 39.618 68.966 51.808-68.966-51.808-68.966-51.808z" class="B"/><path d="M419.18 342.79c-41.463 0-125.887-99.73-129.814-104.397l-5.558-6.606 7.88 3.53c5.75 2.577 140.83 63.466 143.785 93.964.392 4.045-1.384 7.582-5.133 10.23a18.88 18.88 0 0 1-11.159 3.279zM298.21 242.635c32.6 37.402 105.133 111.1 129.85 93.647 2.632-1.857 3.738-3.96 3.48-6.62-2.127-21.928-90.398-67.144-133.33-87.027z" class="C"/><path d="M439.078 290.472s71.136 29.64 55.328 49.4-55.328-49.4-55.328-49.4zM306.686 266.76s148.2 162.032 134.368 171.912S306.686 266.76 306.686 266.76zm-27.664-11.856s62.396 103.92 49.662 114.023-49.662-114.023-49.662-114.023z" class="B"/><path d="M349.646 407.855a7.31 7.31 0 0 1-2.289-.384c-22.875-7.514-68.98-142.497-74.16-157.864L268.6 235.94l8.114 11.924c.24.356 24.494 36.052 46.015 72.982 39.786 68.27 36.488 81.694 30.547 85.853a6.22 6.22 0 0 1-3.62 1.156zM281.968 262.9c16.817 47.74 50.674 135.577 66.622 140.817.794.335 1.704.238 2.4-.257 3.265-2.285 6.713-14.715-31.687-80.6-13.624-23.378-28.35-46.268-37.345-59.95z" class="C"/><path d="M252.625 250.952s-56.157 165.703-21.697 163.995 21.697-163.995 21.697-163.995z" class="B"/><path d="M216.95 442.64c-6.048 0-10.698-2.364-13.832-7.034-22.232-33.135 43.626-179.265 46.44-185.47l3.005-6.622.76 7.23c.623 5.917 14.886 145.366-17.423 182.62-5.108 5.887-11.184 9.002-18.06 9.257-.3.012-.596.017-.9.017zm33.137-183.908c-13.02 29.937-62.072 147.27-43.686 174.672 2.505 3.736 6.198 5.467 11.293 5.27 5.82-.216 10.8-2.8 15.22-7.898 27.008-31.14 19.712-141.956 17.172-172.044z" class="C"/><path d="M233.23 259.19s-94.265 107.815-85.638 119.17 85.638-119.17 85.638-119.17z" class="B"/><path d="M119.232 417.664a5.52 5.52 0 0 1-3.456-1.144c-1.36-1.105-2.176-2.742-2.242-4.492-2.368-26.784 123.1-166.35 128.452-172.278l12.632-14.015-9.454 16.328c-4.03 6.958-98.958 170.476-124.52 175.46a7.39 7.39 0 0 1-1.411.143zm112.36-160.29C190.02 304.59 115.826 393.085 117.47 411.68c-.03.655.24 1.288.733 1.72.493.337 1.115.426 1.683.24 17.666-3.443 79.38-101.866 111.706-156.27z" class="C"/><path d="M204.936 186.59S122.753 89.512 46.757 98.92s158.18 87.668 158.18 87.668z" class="B"/><path d="M215.9 191.125l-6.468-1.478c-.52-.12-52.46-12.032-103.813-27.23C.452 131.3.112 116.99.002 112.288c-.135-5.673 5.64-10.06 17.657-13.415 44.593-12.447 94.945 12.07 129.32 34.837a430 430 0 0 1 64.305 52.639zM43.18 99.446c-8.262-.042-16.49 1.046-24.46 3.233-9.606 2.68-14.85 6.06-14.768 9.514.45 18.972 117.068 52.802 199.54 72.028-19.496-18.702-93.15-84.775-160.313-84.775z" class="C"/><path d="M140.702 179.816s-108.68-7.904-100.776 11.856 100.776-11.856 100.776-11.856zm27.664-73.112s-5.928-27.664-15.808-21.736 15.808 21.736 15.808 21.736zm100.116 19.574S295.597 12.34 283.307 11.92 268.48 126.277 268.48 126.277z" class="B"/><path d="M263.436 151.505l-.222-15.132c-.07-4.86-1.578-119.207 13.288-134.296A6.24 6.24 0 0 1 280.998 0a5.26 5.26 0 0 1 4.234 2.168c11.44 14.652-15.065 122.416-18.126 134.656zM280.998 3.952c-.197 0-.795 0-1.68.9-9.818 9.965-12.097 76.256-12.23 115.243C277.97 73.64 289.062 13.494 282.117 4.6c-.236-.395-.66-.64-1.12-.648z" class="C"/><path d="M393.63 142.272s11.856-29.64 23.712-21.736-23.712 21.736-23.712 21.736zM280.998 405.08S265.2 521.664 294.83 519.688 280.998 405.08 280.998 405.08z" class="B"/><path d="M363.688 378.567s-15.146-25.243-15.146-42.913c0 0-26.505-27.767-18.932-35.34s23.98 21.457 23.98 21.457-30.292-34.078-21.457-39.127 37.865 32.816 37.865 32.816l10.097-5.05s-21.447-52.897-6.31-54.273c6.942-.63 22.72 50.486 22.72 50.486l16.408 41.65s6.31 15.146 3.786 23.98a166.57 166.57 0 0 0-3.786 16.408z" class="D"/><use xlink:href="#B" opacity=".1"/><use xlink:href="#B" x="5.049" class="D"/><path d="M373.154 314.828l-6.942-10.728s-32.816-5.05-29.03 6.31 18.932 6.31 18.932 6.31l8.835 8.835z" opacity=".1"/><path d="M378.833 314.197l-10.097-13.884s-32.816-5.05-29.03 6.3 18.932 6.3 18.932 6.3l8.835 8.835zm234.13 165.973l-6.3 50.486 98.448 6.3v-60.583l-92.137 3.786z" class="D"/><path d="M885.587 762.892L805.75 603.216c-4.77-15.794-19.664-41.517-65.94-58.045l-34.7-29.36-25.874-.93-103.496-15.146s-79.516-5.05-131.264 26.505l-13.884-6.3s-22.72-80.778-12.622-138.837l-58.06-5.05s-31.554 137.575-16.408 179.226 70.68 71.943 70.68 71.943l49.224 49.224 18.932 85.826h295.344l4.7-22.52 23.068 22.52zM773.96 476.4c-92.988 25.1-184.38 26.885-273.844.387C489.6 473.672 482.4 464.44 482.4 453.96V192.613c0-11.693 8.898-21.668 21.023-23.57 84.393-13.235 173.797-12.2 267.305.494 12.355 1.68 21.527 11.768 21.527 23.644v260.215c0 10.7-7.488 20.073-18.305 22.994z" fill="#cfcce0"/><path d="M582.2 297.56s-21.388-31.26-8.226-39.485 32.904 14.807 32.904 14.807 24.678-21.388 37.84-13.162-13.162 37.84-13.162 37.84 19.742 4.936 21.388 18.097 8.226 47.7-19.742 49.356c-14.983.88-23.356-3.43-27.9-7.625a9.17 9.17 0 0 0-12.077-.143c-9.484 8-26.565 17.2-38.992-5.393-4.936-34.55 27.968-54.292 27.968-54.292zm157.93 3.3s21.388-31.26 8.226-39.485-32.904 14.807-32.904 14.807-24.678-21.388-37.84-13.162 13.162 37.84 13.162 37.84-19.742 4.936-21.388 18.097-8.226 47.7 19.742 49.356c14.983.88 23.356-3.43 27.9-7.625a9.17 9.17 0 0 1 12.077-.143c9.484 8 26.565 17.2 38.992-5.393 4.936-34.55-27.97-54.292-27.97-54.292zm-183.905 85.43s30.862 24.847 96.672 23.28 87.092-4.253 101.16-19.764 18.236 2.404 13.868 14.147-9.978 31.783-42.763 35.032c-21.583 2.138-68.233 2.645-97.6 2.742a150.03 150.03 0 0 1-65.967-14.675q-.408-.198-.814-.398a37.35 37.35 0 0 1-20.809-33.474c.003-5.534.977-8.525 4.58-9.615 6.493-1.964 11.663 2.725 11.663 2.725zm94.405 113.84a498.47 498.47 0 0 1-148.341-22.503 28.98 28.98 0 0 1-20.491-27.768V143.692a28.96 28.96 0 0 1 24.333-28.671c90.637-14.94 191-14.745 298.296.576 14.274 2.108 24.865 14.332 24.918 28.76V449.2c-.053 12.998-8.687 24.398-21.185 27.97-52.542 14.9-104.486 22.63-154.4 22.94l-3.14.01zm-3.497-394.015a865.24 865.24 0 0 0-140.653 11.033c-13.02 2.106-22.575 13.365-22.537 26.554V449.85a26.84 26.84 0 0 0 18.983 25.719c95.892 29.85 198.4 29.696 304.647-.46l.293 1.032-.293-1.032a27.06 27.06 0 0 0 19.627-25.907V144.357a27.03 27.03 0 0 0-23.076-26.637c-52-7.574-104.452-11.456-157-11.615zm-6.59 45.395c-23.634 0-43.86-1.06-60.42-2.497-52.083-4.517-80.15-13.635-80.427-13.726l.673-2.037c.276.1 28.172 9.145 80.04 13.635 47.872 4.146 126.54 5.138 229.435-13.672l.385 2.1C742.63 147.67 685.445 151.5 640.544 151.5z" class="C"/><defs ><path id="B" d="M402.814 384.878s8.835-13.884 5.638-35.083-20.783-33.073-20.783-33.073-11.36 8.835 0 31.554c0 0-13.884 12.622-2.524 32.816"/></defs></svg>